<?xml version="1.0" standalone="no"?>
<!DOCTYPE svg PUBLIC "-//W3C//DTD SVG 1.1//EN" "http://www.w3.org/Graphics/SVG/1.1/DTD/svg11.dtd" >
<svg xmlns="http://www.w3.org/2000/svg" xmlns:xlink="http://www.w3.org/1999/xlink" version="1.1">
<metadata>
Created by FontForge 20170731 at Sat Oct 29 02:05:08 2016
 By Aleksey,,,
Copyright (C) 2001, 2010 Hoefler &#38; Co. http://www.typography.com
</metadata>
<defs>
<font id="GothamSSm-Bold" horiz-adv-x="528" >
  <font-face 
    font-family="Gotham SSm Bold"
    font-weight="400"
    font-stretch="normal"
    units-per-em="1000"
    panose-1="0 0 0 0 0 0 0 0 0 0"
    ascent="800"
    descent="-200"
    x-height="556"
    cap-height="728"
    bbox="-38 -299 1137 1011"
    underline-thickness="50"
    underline-position="-200"
    unicode-range="U+0020-2122"
  />
<missing-glyph horiz-adv-x="500" 
d="M0 800h500v-1000h-500v1000zM250 360l179 390h-358zM222 300l-172 376v-752zM278 300l172 -376v752zM71 -150h358l-179 390z" />
    <glyph glyph-name=".notdef" horiz-adv-x="500" 
d="M0 800h500v-1000h-500v1000zM250 360l179 390h-358zM222 300l-172 376v-752zM278 300l172 -376v752zM71 -150h358l-179 390z" />
    <glyph glyph-name=".null" horiz-adv-x="0" 
 />
    <glyph glyph-name="nonmarkingreturn" horiz-adv-x="320" 
 />
    <glyph glyph-name="space" unicode=" " horiz-adv-x="320" 
 />
    <glyph glyph-name="exclam" unicode="!" horiz-adv-x="340" 
d="M81 704v24h178v-24l-47 -460h-84zM89 162h162v-162h-162v162z" />
    <glyph glyph-name="quotedbl" unicode="&#x22;" horiz-adv-x="542" 
d="M326 728h168v-5l-111 -323h-77zM84 728h168v-5l-111 -323h-77z" />
    <glyph glyph-name="numbersign" unicode="#" horiz-adv-x="736" 
d="M658 158h-117l-27 -158h-132l27 158h-154l-27 -158h-132l27 158h-82v128h104l27 160h-94v128h116l27 154h132l-27 -154h154l27 154h132l-27 -154h83v-128h-105l-27 -160h95v-128zM273 282h161l28 168h-161z" />
    <glyph glyph-name="dollar" unicode="$" horiz-adv-x="679" 
d="M527 532q-32 21 -65 37t-66 25v-166q118 -32 172 -83t54 -138v-2q0 -44 -16 -79t-45 -61t-70 -42.5t-90 -21.5v-103h-105v105q-68 8 -131 34t-114 66l78 113q43 -32 84 -54t88 -31v173q-56 15 -98 34t-70 45t-41.5 60t-13.5 80v2q0 43 15.5 78t44 61.5t69 42.5t89.5 21
v60h105v-62q56 -8 103.5 -28t90.5 -50zM476 199q0 28 -17 46.5t-63 34.5v-154q80 11 80 71v2zM224 532q0 -26 15 -44.5t62 -34.5v150q-41 -5 -59 -23.5t-18 -45.5v-2z" />
    <glyph glyph-name="percent" unicode="%" horiz-adv-x="900" 
d="M226 364q-39 0 -71 14.5t-55.5 39.5t-36 58.5t-12.5 71.5v2q0 39 13 72.5t36 59t56 40t72 14.5t71.5 -14.5t55.5 -39.5t35.5 -58.5t12.5 -71.5v-2q0 -38 -13 -72t-36 -59.5t-55.5 -40t-72.5 -14.5zM226 645q-34 0 -51.5 -27.5t-17.5 -65.5v-2q0 -19 5 -36t14.5 -30
t22.5 -20.5t29 -7.5q34 0 51.5 27.5t17.5 64.5v2q0 38 -19.5 66.5t-51.5 28.5zM656 728h120l-291 -391l-241 -337h-120l291 391zM672 -8q-39 0 -71.5 14.5t-55.5 39.5t-35.5 58.5t-12.5 71.5v2q0 38 12.5 72t36 59.5t56 40t72.5 14.5q39 0 71 -14.5t55.5 -39.5t36 -58.5
t12.5 -71.5v-2q0 -38 -13 -72t-36 -59.5t-56 -40t-72 -14.5zM674 83q34 0 51.5 28t17.5 65v2q0 38 -20 66t-51 28q-34 0 -51.5 -27.5t-17.5 -64.5v-2q0 -38 19.5 -66.5t51.5 -28.5z" />
    <glyph glyph-name="ampersand" unicode="&#x26;" horiz-adv-x="732" 
d="M499 73q-45 -38 -98.5 -60.5t-117.5 -22.5q-52 0 -96.5 14.5t-77 42t-51 66t-18.5 86.5v2q0 70 37 119.5t108 81.5q-28 38 -40.5 73.5t-12.5 73.5v2q0 37 14.5 71t42.5 60.5t68.5 42t92.5 15.5q46 0 83.5 -14t64 -38.5t41 -57.5t14.5 -71v-2q0 -73 -43 -118.5t-112 -71.5
l103 -103q18 29 36.5 61t35.5 67l113 -62q-21 -39 -45 -79t-51 -77l108 -109l-113 -80zM318 448q50 18 75 41.5t25 58.5v2q0 32 -19.5 51t-51.5 19q-34 0 -54 -21t-20 -55v-2q0 -25 10.5 -46t34.5 -48zM301 116q29 0 57.5 12t54.5 34l-144 146q-39 -20 -56.5 -46t-17.5 -55
v-2q0 -40 29.5 -64.5t76.5 -24.5z" />
    <glyph glyph-name="quotesingle" unicode="'" horiz-adv-x="302" 
d="M84 728h170v-5l-111 -323h-79z" />
    <glyph glyph-name="parenleft" unicode="(" horiz-adv-x="470" 
d="M354 -147q-144 78 -216 186.5t-72 258.5v1q0 149 72 258t216 187l67 -101q-53 -37 -91.5 -74.5t-63.5 -79t-37 -88.5t-12 -103v-1q0 -55 12 -101.5t37 -88t63.5 -79.5t91.5 -74z" />
    <glyph glyph-name="parenright" unicode=")" horiz-adv-x="470" 
d="M49 -46q53 37 91.5 74.5t63.5 79t37 88t12 102.5v1q0 55 -12 102t-37 88.5t-63.5 79.5t-91.5 74l67 101q144 -78 216 -187t72 -259v-1q0 -149 -72 -257.5t-216 -186.5z" />
    <glyph glyph-name="asterisk" unicode="*" horiz-adv-x="455" 
d="M202 514l-101 -77l-42 73l116 50l-116 49l42 73l101 -77l-16 125h83l-16 -125l101 77l43 -73l-117 -49l117 -50l-43 -73l-101 77l16 -125h-83z" />
    <glyph glyph-name="plus" unicode="+" horiz-adv-x="672" 
d="M265 297h-190v138h190v189h142v-189h191v-138h-191v-189h-142v189z" />
    <glyph glyph-name="comma" unicode="," horiz-adv-x="302" 
d="M33 -102q53 6 78 32t21 70h-62v162h162v-137q0 -100 -47.5 -144t-138.5 -46z" />
    <glyph glyph-name="hyphen" unicode="-" horiz-adv-x="432" 
d="M57 395h318v-147h-318v147z" />
    <glyph glyph-name="period" unicode="." horiz-adv-x="302" 
d="M70 162h162v-162h-162v162z" />
    <glyph glyph-name="slash" unicode="/" horiz-adv-x="557" 
d="M438 830h129l-462 -963h-129z" />
    <glyph glyph-name="zero" unicode="0" horiz-adv-x="766" 
d="M382 -12q-73 0 -132 29t-101 79t-65 118.5t-23 147.5v2q0 79 23.5 147.5t66 119.5t102 80t131.5 29t131 -29t101.5 -79t65.5 -118.5t23 -147.5v-2q0 -79 -23 -147.5t-65.5 -119.5t-102 -80t-132.5 -29zM384 126q37 0 67.5 18t51.5 49.5t32.5 75t11.5 93.5v2
q0 50 -12 93.5t-33.5 75.5t-52 50.5t-67.5 18.5t-67 -18t-51.5 -49.5t-33 -74.5t-11.5 -94v-2q0 -51 11.5 -94.5t33.5 -75.5t52 -50t68 -18z" />
    <glyph glyph-name="one" unicode="1" horiz-adv-x="441" 
d="M189 577l-128 -32l-32 126l207 62h105v-733h-152v577z" />
    <glyph glyph-name="two" unicode="2" horiz-adv-x="654" 
d="M55 122l244 201q34 29 58.5 52t40 43.5t22.5 40.5t7 43q0 48 -28.5 73.5t-73.5 25.5q-44 0 -77.5 -24.5t-74.5 -75.5l-108 86q27 37 54 65t59 47t70 29t87 10q56 0 102 -16t78.5 -45t50.5 -70t18 -92v-2q0 -45 -11.5 -80.5t-35.5 -67.5t-60 -64t-84 -70l-125 -98h323
v-133h-536v122z" />
    <glyph glyph-name="three" unicode="3" horiz-adv-x="653" 
d="M327 -12q-98 0 -166.5 35t-115.5 91l106 100q38 -43 79.5 -66t98.5 -23q48 0 78 25.5t30 67.5v2q0 47 -39 72t-108 25h-65l-25 97l179 182h-292v132h490v-116l-188 -182q38 -6 74 -19.5t63.5 -37.5t44.5 -60t17 -87v-2q0 -51 -18.5 -94.5t-52 -75t-82 -49t-108.5 -17.5z
" />
    <glyph glyph-name="four" unicode="4" horiz-adv-x="723" 
d="M421 158h-358l-26 109l401 466h130v-450h99v-125h-99v-158h-147v158zM421 283v239l-203 -239h203z" />
    <glyph glyph-name="five" unicode="5" horiz-adv-x="662" 
d="M321 -12q-87 0 -152.5 29t-118.5 80l93 111q42 -38 84.5 -59.5t91.5 -21.5q58 0 92 27.5t34 78.5v2q0 49 -36.5 76t-96.5 27q-35 0 -66.5 -8.5t-57.5 -19.5l-90 60l21 358h445v-135h-313l-9 -135q23 6 45.5 10t54.5 4q53 0 99 -13.5t80.5 -42t54.5 -72t20 -104.5v-2
q0 -57 -19.5 -103.5t-55.5 -79t-87 -50t-113 -17.5z" />
    <glyph glyph-name="six" unicode="6" horiz-adv-x="695" 
d="M356 -12q-70 0 -120.5 19.5t-88.5 57.5q-20 20 -36 45.5t-27 58.5t-17 75.5t-6 96.5v2q0 84 19.5 157t59 126t99 83.5t140.5 30.5q73 0 125.5 -21t100.5 -59l-81 -119q-36 29 -69.5 44.5t-80.5 15.5q-43 0 -71.5 -19t-46 -46.5t-25.5 -59.5t-10 -58h1q29 23 66.5 38.5
t88.5 15.5q54 0 100.5 -15t81 -44.5t54 -72.5t19.5 -99v-3q0 -56 -21 -102t-58 -79t-87.5 -51t-109.5 -18zM350 119q62 0 95.5 32t33.5 80v3q0 48 -34.5 79t-96.5 31q-61 0 -95 -31t-34 -79v-2q0 -48 35 -80.5t96 -32.5z" />
    <glyph glyph-name="seven" unicode="7" horiz-adv-x="650" 
d="M422 595h-347v133h521v-116l-326 -612h-174z" />
    <glyph glyph-name="eight" unicode="8" horiz-adv-x="663" 
d="M332 -10q-60 0 -111.5 15t-89 42.5t-59 66t-21.5 85.5v2q0 67 31 108.5t90 67.5q-44 26 -70 63.5t-26 96.5v2q0 42 18.5 78.5t52 63t81 42t104.5 15.5t104 -15t80.5 -42t52 -63.5t18.5 -78.5v-2q0 -59 -26 -96.5t-69 -63.5q28 -14 50.5 -30.5t38 -37t23.5 -46t8 -58.5v-2
q0 -50 -21.5 -89.5t-59 -67t-88.5 -42t-111 -14.5zM332 429q49 0 79 25.5t30 66.5v2q0 35 -29 61.5t-80 26.5t-80.5 -26t-29.5 -61v-2q0 -41 30 -67t80 -26zM332 117q62 0 96.5 27t34.5 67v2q0 44 -37 68.5t-94 24.5t-94.5 -24.5t-37.5 -68.5v-2q0 -39 34.5 -66.5
t97.5 -27.5z" />
    <glyph glyph-name="nine" unicode="9" horiz-adv-x="695" 
d="M321 127q43 0 72 18.5t47 46t25.5 58.5t9.5 56h-1q-27 -26 -65 -41t-87 -15q-59 0 -107 16t-81.5 46t-52 73.5t-18.5 98.5v2q0 55 20 101.5t56.5 80.5t87.5 53t112 19q36 0 65.5 -4.5t54.5 -14t46.5 -24.5t42.5 -35q39 -39 62.5 -103.5t23.5 -171.5v-2q0 -89 -20.5 -162
t-61 -125t-99.5 -81t-135 -29q-80 0 -136 24t-102 62l81 117q40 -32 77 -48t83 -16zM347 378q62 0 95.5 32.5t33.5 80.5v2q0 51 -35 83.5t-97 32.5t-95 -32.5t-33 -83.5v-2q0 -51 35 -82t96 -31z" />
    <glyph glyph-name="colon" unicode=":" horiz-adv-x="312" 
d="M75 556h162v-162h-162v162zM75 162h162v-162h-162v162z" />
    <glyph glyph-name="semicolon" unicode=";" horiz-adv-x="312" 
d="M75 556h162v-162h-162v162zM38 -102q53 6 78 32t21 70h-62v162h162v-137q0 -100 -47.5 -144t-138.5 -46z" />
    <glyph glyph-name="less" unicode="&#x3c;" horiz-adv-x="672" 
d="M74 297v138l503 222v-141l-356 -149l356 -149v-143z" />
    <glyph glyph-name="equal" unicode="=" horiz-adv-x="672" 
d="M81 569h511v-138h-511v138zM81 301h511v-138h-511v138z" />
    <glyph glyph-name="greater" unicode="&#x3e;" horiz-adv-x="672" 
d="M96 216l355 149l-355 149v143l502 -222v-138l-502 -222v141z" />
    <glyph glyph-name="question" unicode="?" horiz-adv-x="573" 
d="M188 413l5 5q99 4 141.5 29.5t42.5 69.5v2q0 37 -26 58t-74 21q-45 0 -84 -18.5t-75 -55.5l-92 100q45 51 106.5 82t147.5 31q56 0 102 -14t79 -41.5t51 -67.5t18 -91v-2q0 -50 -16 -85.5t-44 -60.5t-65.5 -40t-80.5 -23l-11 -68h-102zM178 162h162v-162h-162v162z" />
    <glyph glyph-name="at" unicode="@" horiz-adv-x="1027" 
d="M523 -168q-100 0 -185 36t-147 97.5t-97 144t-35 175.5t35.5 176t97 145t144.5 98t179 36q95 0 178 -34.5t144 -91.5t96 -131t35 -154q0 -65 -16.5 -114t-44.5 -81.5t-65.5 -49t-79.5 -16.5q-63 0 -100.5 20.5t-57.5 44.5q-27 -26 -65.5 -45.5t-89.5 -19.5
q-40 0 -74.5 14t-60 40t-40.5 63t-15 83q0 55 19.5 102.5t51.5 83t74.5 55.5t87.5 20q55 0 89 -21t56 -51l11 56l119 -19l-49 -276q-2 -9 -2.5 -18.5t-0.5 -16.5q0 -29 20 -48t57 -19q28 0 52 13.5t42 40.5t28.5 67t10.5 92q0 72 -31 139t-86 118t-130 82t-163 31
q-89 0 -164.5 -32.5t-130.5 -89t-86.5 -132t-31.5 -160.5q0 -86 31 -161t87 -131t133.5 -88t169.5 -32q39 0 72.5 4.5t64.5 13t60 21.5t58 30l21 -32q-61 -37 -128 -57.5t-148 -20.5zM483 172q23 0 44 9t38 26q21 21 33.5 51.5t12.5 66.5q0 45 -28 72.5t-71 27.5
q-46 0 -84 -36q-21 -21 -33 -50t-12 -64q0 -50 28 -76.5t72 -26.5z" />
    <glyph glyph-name="A" unicode="A" horiz-adv-x="830" 
d="M344 733h142l313 -733h-161l-68 166h-315l-68 -166h-157zM515 302l-102 247l-103 -247h205z" />
    <glyph glyph-name="A" unicode="&#x1fa;" horiz-adv-x="830" 
d="M344 733h142l313 -733h-161l-68 166h-315l-68 -166h-157zM515 302l-102 247l-103 -247h205z" />
    <glyph glyph-name="A" unicode="&#x104;" horiz-adv-x="830" 
d="M344 733h142l313 -733h-161l-68 166h-315l-68 -166h-157zM515 302l-102 247l-103 -247h205z" />
    <glyph glyph-name="A" unicode="&#x102;" horiz-adv-x="830" 
d="M344 733h142l313 -733h-161l-68 166h-315l-68 -166h-157zM515 302l-102 247l-103 -247h205z" />
    <glyph glyph-name="A" unicode="&#x100;" horiz-adv-x="830" 
d="M344 733h142l313 -733h-161l-68 166h-315l-68 -166h-157zM515 302l-102 247l-103 -247h205z" />
    <glyph glyph-name="B" unicode="B" horiz-adv-x="759" 
d="M93 728h335q63 0 111 -16.5t80 -47.5q49 -50 49 -124v-2q0 -31 -8 -55.5t-21 -43.5t-31 -33.5t-37 -25.5q63 -23 100.5 -64t37.5 -114v-2q0 -50 -19.5 -87.5t-55 -62.5t-86 -37.5t-111.5 -12.5h-344v728zM515 515q0 37 -28 57.5t-81 20.5h-164v-162h154q55 0 87 19.5
t32 62.5v2zM556 220q0 39 -30 61t-95 22h-189v-168h195q56 0 87.5 20.5t31.5 62.5v2z" />
    <glyph glyph-name="C" unicode="C" horiz-adv-x="776" 
d="M433 -12q-80 0 -148.5 29t-118.5 79.5t-78 119t-28 146.5v2q0 78 28 146.5t78 119.5t119.5 80.5t153.5 29.5q51 0 93 -8t76.5 -23t63 -35.5t54.5 -45.5l-98 -113q-43 39 -88 61.5t-102 22.5q-47 0 -87 -18.5t-69 -50t-45 -74t-16 -90.5v-2q0 -48 16 -90.5t44.5 -75
t68.5 -51t88 -18.5q32 0 58 6t49.5 17.5t44.5 27.5t43 36l98 -99q-28 -30 -58.5 -53.5t-66 -40.5t-78.5 -26t-95 -9z" />
    <glyph glyph-name="C" unicode="&#x10c;" horiz-adv-x="776" 
d="M433 -12q-80 0 -148.5 29t-118.5 79.5t-78 119t-28 146.5v2q0 78 28 146.5t78 119.5t119.5 80.5t153.5 29.5q51 0 93 -8t76.5 -23t63 -35.5t54.5 -45.5l-98 -113q-43 39 -88 61.5t-102 22.5q-47 0 -87 -18.5t-69 -50t-45 -74t-16 -90.5v-2q0 -48 16 -90.5t44.5 -75
t68.5 -51t88 -18.5q32 0 58 6t49.5 17.5t44.5 27.5t43 36l98 -99q-28 -30 -58.5 -53.5t-66 -40.5t-78.5 -26t-95 -9z" />
    <glyph glyph-name="C" unicode="&#x10a;" horiz-adv-x="776" 
d="M433 -12q-80 0 -148.5 29t-118.5 79.5t-78 119t-28 146.5v2q0 78 28 146.5t78 119.5t119.5 80.5t153.5 29.5q51 0 93 -8t76.5 -23t63 -35.5t54.5 -45.5l-98 -113q-43 39 -88 61.5t-102 22.5q-47 0 -87 -18.5t-69 -50t-45 -74t-16 -90.5v-2q0 -48 16 -90.5t44.5 -75
t68.5 -51t88 -18.5q32 0 58 6t49.5 17.5t44.5 27.5t43 36l98 -99q-28 -30 -58.5 -53.5t-66 -40.5t-78.5 -26t-95 -9z" />
    <glyph glyph-name="C" unicode="&#x106;" horiz-adv-x="776" 
d="M433 -12q-80 0 -148.5 29t-118.5 79.5t-78 119t-28 146.5v2q0 78 28 146.5t78 119.5t119.5 80.5t153.5 29.5q51 0 93 -8t76.5 -23t63 -35.5t54.5 -45.5l-98 -113q-43 39 -88 61.5t-102 22.5q-47 0 -87 -18.5t-69 -50t-45 -74t-16 -90.5v-2q0 -48 16 -90.5t44.5 -75
t68.5 -51t88 -18.5q32 0 58 6t49.5 17.5t44.5 27.5t43 36l98 -99q-28 -30 -58.5 -53.5t-66 -40.5t-78.5 -26t-95 -9z" />
    <glyph glyph-name="D" unicode="D" horiz-adv-x="821" 
d="M93 728h281q86 0 157 -27.5t122 -76.5t79.5 -115t28.5 -143v-2q0 -77 -28.5 -143.5t-79.5 -115.5t-122 -77t-157 -28h-281v728zM246 589v-450h128q51 0 92.5 16.5t71 45.5t46 70t16.5 91v2q0 49 -16.5 90.5t-46 71.5t-71 46.5t-92.5 16.5h-128z" />
    <glyph glyph-name="D" unicode="&#x110;" horiz-adv-x="821" 
d="M93 728h281q86 0 157 -27.5t122 -76.5t79.5 -115t28.5 -143v-2q0 -77 -28.5 -143.5t-79.5 -115.5t-122 -77t-157 -28h-281v728zM246 589v-450h128q51 0 92.5 16.5t71 45.5t46 70t16.5 91v2q0 49 -16.5 90.5t-46 71.5t-71 46.5t-92.5 16.5h-128z" />
    <glyph glyph-name="D" unicode="&#x10e;" horiz-adv-x="821" 
d="M93 728h281q86 0 157 -27.5t122 -76.5t79.5 -115t28.5 -143v-2q0 -77 -28.5 -143.5t-79.5 -115.5t-122 -77t-157 -28h-281v728zM246 589v-450h128q51 0 92.5 16.5t71 45.5t46 70t16.5 91v2q0 49 -16.5 90.5t-46 71.5t-71 46.5t-92.5 16.5h-128z" />
    <glyph glyph-name="E" unicode="E" horiz-adv-x="705" 
d="M93 728h547v-137h-395v-156h348v-137h-348v-161h400v-137h-552v728z" />
    <glyph glyph-name="F" unicode="F" horiz-adv-x="690" 
d="M93 728h551v-140h-398v-163h352v-140h-352v-285h-153v728z" />
    <glyph glyph-name="G" unicode="G" horiz-adv-x="823" 
d="M442 -12q-85 0 -155.5 28t-120.5 78t-78 118.5t-28 149.5v2q0 77 28.5 145.5t79 119.5t120.5 81t153 30q49 0 89 -6.5t74 -19t63.5 -31t58.5 -42.5l-97 -117q-21 18 -42 31.5t-44 23.5t-49 15t-58 5q-45 0 -84 -18.5t-68.5 -50.5t-46 -74t-16.5 -90v-2q0 -51 16.5 -94.5
t46.5 -75t71.5 -49.5t91.5 -18q92 0 156 46v111h-166v133h315v-314q-57 -48 -133.5 -81.5t-176.5 -33.5z" />
    <glyph glyph-name="G" unicode="&#x122;" horiz-adv-x="823" 
d="M442 -12q-85 0 -155.5 28t-120.5 78t-78 118.5t-28 149.5v2q0 77 28.5 145.5t79 119.5t120.5 81t153 30q49 0 89 -6.5t74 -19t63.5 -31t58.5 -42.5l-97 -117q-21 18 -42 31.5t-44 23.5t-49 15t-58 5q-45 0 -84 -18.5t-68.5 -50.5t-46 -74t-16.5 -90v-2q0 -51 16.5 -94.5
t46.5 -75t71.5 -49.5t91.5 -18q92 0 156 46v111h-166v133h315v-314q-57 -48 -133.5 -81.5t-176.5 -33.5z" />
    <glyph glyph-name="G" unicode="&#x120;" horiz-adv-x="823" 
d="M442 -12q-85 0 -155.5 28t-120.5 78t-78 118.5t-28 149.5v2q0 77 28.5 145.5t79 119.5t120.5 81t153 30q49 0 89 -6.5t74 -19t63.5 -31t58.5 -42.5l-97 -117q-21 18 -42 31.5t-44 23.5t-49 15t-58 5q-45 0 -84 -18.5t-68.5 -50.5t-46 -74t-16.5 -90v-2q0 -51 16.5 -94.5
t46.5 -75t71.5 -49.5t91.5 -18q92 0 156 46v111h-166v133h315v-314q-57 -48 -133.5 -81.5t-176.5 -33.5z" />
    <glyph glyph-name="G" unicode="&#x11e;" horiz-adv-x="823" 
d="M442 -12q-85 0 -155.5 28t-120.5 78t-78 118.5t-28 149.5v2q0 77 28.5 145.5t79 119.5t120.5 81t153 30q49 0 89 -6.5t74 -19t63.5 -31t58.5 -42.5l-97 -117q-21 18 -42 31.5t-44 23.5t-49 15t-58 5q-45 0 -84 -18.5t-68.5 -50.5t-46 -74t-16.5 -90v-2q0 -51 16.5 -94.5
t46.5 -75t71.5 -49.5t91.5 -18q92 0 156 46v111h-166v133h315v-314q-57 -48 -133.5 -81.5t-176.5 -33.5z" />
    <glyph glyph-name="H" unicode="H" horiz-adv-x="798" 
d="M93 728h153v-291h306v291h154v-728h-154v295h-306v-295h-153v728z" />
    <glyph glyph-name="I" unicode="I" horiz-adv-x="354" 
d="M100 728h154v-728h-154v728z" />
    <glyph glyph-name="J" unicode="J" horiz-adv-x="594" 
d="M257 -10q-42 0 -77.5 8.5t-64.5 23.5t-52.5 35t-42.5 43l98 108q31 -36 63 -56t72 -20q47 0 74.5 30t27.5 95v471h157v-477q0 -65 -18 -113.5t-50 -80.5q-33 -34 -80.5 -50.5t-106.5 -16.5z" />
    <glyph glyph-name="K" unicode="K" horiz-adv-x="766" 
d="M93 728h153v-328l304 328h189l-299 -310l312 -418h-185l-231 313l-90 -93v-220h-153v728z" />
    <glyph glyph-name="K" unicode="&#x136;" horiz-adv-x="766" 
d="M93 728h153v-328l304 328h189l-299 -310l312 -418h-185l-231 313l-90 -93v-220h-153v728z" />
    <glyph glyph-name="L" unicode="L" horiz-adv-x="651" 
d="M93 728h153v-588h367v-140h-520v728z" />
    <glyph glyph-name="L" unicode="&#x13f;" horiz-adv-x="651" 
d="M93 728h153v-588h367v-140h-520v728z" />
    <glyph glyph-name="L" unicode="&#x13d;" horiz-adv-x="651" 
d="M93 728h153v-588h367v-140h-520v728z" />
    <glyph glyph-name="L" unicode="&#x13b;" horiz-adv-x="651" 
d="M93 728h153v-588h367v-140h-520v728z" />
    <glyph glyph-name="L" unicode="&#x139;" horiz-adv-x="651" 
d="M93 728h153v-588h367v-140h-520v728z" />
    <glyph glyph-name="M" unicode="M" horiz-adv-x="911" 
d="M93 728h165l197 -315l198 315h165v-728h-153v485l-210 -318h-4l-208 315v-482h-150v728z" />
    <glyph glyph-name="N" unicode="N" horiz-adv-x="830" 
d="M93 728h141l351 -459v459h152v-728h-131l-362 474v-474h-151v728z" />
    <glyph glyph-name="O" unicode="O" horiz-adv-x="892" 
d="M445 -12q-84 0 -154.5 29.5t-122 80t-80 118.5t-28.5 146v2q0 77 29 145.5t80.5 119.5t122.5 81t155 30t154.5 -29.5t122 -80t80 -118.5t28.5 -146v-2q0 -77 -29 -145.5t-80.5 -119.5t-122.5 -81t-155 -30zM447 129q49 0 90.5 18.5t71 50t46 74t16.5 90.5v2
q0 48 -17 90.5t-47 75t-71.5 51t-90.5 18.5q-50 0 -91 -18.5t-70.5 -50t-46 -74t-16.5 -90.5v-2q0 -48 16.5 -90.5t46.5 -75t71.5 -51t91.5 -18.5z" />
    <glyph glyph-name="O" unicode="&#x1fe;" horiz-adv-x="892" 
d="M445 -12q-84 0 -154.5 29.5t-122 80t-80 118.5t-28.5 146v2q0 77 29 145.5t80.5 119.5t122.5 81t155 30t154.5 -29.5t122 -80t80 -118.5t28.5 -146v-2q0 -77 -29 -145.5t-80.5 -119.5t-122.5 -81t-155 -30zM447 129q49 0 90.5 18.5t71 50t46 74t16.5 90.5v2
q0 48 -17 90.5t-47 75t-71.5 51t-90.5 18.5q-50 0 -91 -18.5t-70.5 -50t-46 -74t-16.5 -90.5v-2q0 -48 16.5 -90.5t46.5 -75t71.5 -51t91.5 -18.5z" />
    <glyph glyph-name="O" unicode="&#x150;" horiz-adv-x="892" 
d="M445 -12q-84 0 -154.5 29.5t-122 80t-80 118.5t-28.5 146v2q0 77 29 145.5t80.5 119.5t122.5 81t155 30t154.5 -29.5t122 -80t80 -118.5t28.5 -146v-2q0 -77 -29 -145.5t-80.5 -119.5t-122.5 -81t-155 -30zM447 129q49 0 90.5 18.5t71 50t46 74t16.5 90.5v2
q0 48 -17 90.5t-47 75t-71.5 51t-90.5 18.5q-50 0 -91 -18.5t-70.5 -50t-46 -74t-16.5 -90.5v-2q0 -48 16.5 -90.5t46.5 -75t71.5 -51t91.5 -18.5z" />
    <glyph glyph-name="O" unicode="&#x14e;" horiz-adv-x="892" 
d="M445 -12q-84 0 -154.5 29.5t-122 80t-80 118.5t-28.5 146v2q0 77 29 145.5t80.5 119.5t122.5 81t155 30t154.5 -29.5t122 -80t80 -118.5t28.5 -146v-2q0 -77 -29 -145.5t-80.5 -119.5t-122.5 -81t-155 -30zM447 129q49 0 90.5 18.5t71 50t46 74t16.5 90.5v2
q0 48 -17 90.5t-47 75t-71.5 51t-90.5 18.5q-50 0 -91 -18.5t-70.5 -50t-46 -74t-16.5 -90.5v-2q0 -48 16.5 -90.5t46.5 -75t71.5 -51t91.5 -18.5z" />
    <glyph glyph-name="O" unicode="&#x14c;" horiz-adv-x="892" 
d="M445 -12q-84 0 -154.5 29.5t-122 80t-80 118.5t-28.5 146v2q0 77 29 145.5t80.5 119.5t122.5 81t155 30t154.5 -29.5t122 -80t80 -118.5t28.5 -146v-2q0 -77 -29 -145.5t-80.5 -119.5t-122.5 -81t-155 -30zM447 129q49 0 90.5 18.5t71 50t46 74t16.5 90.5v2
q0 48 -17 90.5t-47 75t-71.5 51t-90.5 18.5q-50 0 -91 -18.5t-70.5 -50t-46 -74t-16.5 -90.5v-2q0 -48 16.5 -90.5t46.5 -75t71.5 -51t91.5 -18.5z" />
    <glyph glyph-name="P" unicode="P" horiz-adv-x="703" 
d="M93 728h295q65 0 116.5 -18.5t87.5 -51.5t55 -79t19 -101v-2q0 -63 -23 -110.5t-63 -79.5t-93 -48t-114 -16h-127v-222h-153v728zM378 359q63 0 98 32.5t35 81.5v2q0 56 -36.5 85t-99.5 29h-129v-230h132z" />
    <glyph glyph-name="Q" unicode="Q" horiz-adv-x="892" 
d="M744 -22l-82 74q-46 -30 -100.5 -47t-116.5 -17q-84 0 -154.5 29.5t-122 80t-80 118.5t-28.5 146v2q0 77 29 145.5t80.5 119.5t122.5 81t155 30t154.5 -29.5t122 -80t80 -118.5t28.5 -146v-2q0 -59 -17 -112.5t-49 -99.5l76 -65zM447 129q55 0 102 22l-120 103l98 110
l121 -110q23 49 23 108v2q0 48 -17 90.5t-47 75t-71.5 51t-90.5 18.5q-50 0 -91 -18.5t-70.5 -50t-46 -74t-16.5 -90.5v-2q0 -48 16.5 -90.5t46.5 -75t71.5 -51t91.5 -18.5z" />
    <glyph glyph-name="R" unicode="R" horiz-adv-x="760" 
d="M93 728h331q138 0 212 -74q61 -61 61 -164v-2q0 -89 -44 -144.5t-115 -80.5l182 -263h-180l-161 237h-133v-237h-153v728zM414 373q60 0 94 29.5t34 77.5v2q0 53 -35 80t-96 27h-165v-216h168z" />
    <glyph glyph-name="R" unicode="&#x158;" horiz-adv-x="760" 
d="M93 728h331q138 0 212 -74q61 -61 61 -164v-2q0 -89 -44 -144.5t-115 -80.5l182 -263h-180l-161 237h-133v-237h-153v728zM414 373q60 0 94 29.5t34 77.5v2q0 53 -35 80t-96 27h-165v-216h168z" />
    <glyph glyph-name="R" unicode="&#x156;" horiz-adv-x="760" 
d="M93 728h331q138 0 212 -74q61 -61 61 -164v-2q0 -89 -44 -144.5t-115 -80.5l182 -263h-180l-161 237h-133v-237h-153v728zM414 373q60 0 94 29.5t34 77.5v2q0 53 -35 80t-96 27h-165v-216h168z" />
    <glyph glyph-name="R" unicode="&#x154;" horiz-adv-x="760" 
d="M93 728h331q138 0 212 -74q61 -61 61 -164v-2q0 -89 -44 -144.5t-115 -80.5l182 -263h-180l-161 237h-133v-237h-153v728zM414 373q60 0 94 29.5t34 77.5v2q0 53 -35 80t-96 27h-165v-216h168z" />
    <glyph glyph-name="S" unicode="S" horiz-adv-x="674" 
d="M351 -10q-84 0 -163 28.5t-145 87.5l91 109q50 -42 103 -66t117 -24q51 0 80.5 20t29.5 54v2q0 16 -6 28.5t-22.5 24t-46 21.5t-75.5 22q-56 14 -100.5 30t-76 41t-48.5 61t-17 90v2q0 49 19 89t52.5 68.5t80 44t102.5 15.5q80 0 146.5 -23.5t122.5 -68.5l-81 -116
q-48 35 -95.5 54t-95.5 19t-73 -20t-25 -48v-2q0 -19 7 -32t25 -24t49 -21.5t79 -22.5q56 -14 99 -32t72.5 -43.5t45 -60t15.5 -81.5v-2q0 -54 -19.5 -95.5t-55 -70t-84.5 -43.5t-107 -15z" />
    <glyph glyph-name="S" unicode="&#x218;" horiz-adv-x="674" 
d="M351 -10q-84 0 -163 28.5t-145 87.5l91 109q50 -42 103 -66t117 -24q51 0 80.5 20t29.5 54v2q0 16 -6 28.5t-22.5 24t-46 21.5t-75.5 22q-56 14 -100.5 30t-76 41t-48.5 61t-17 90v2q0 49 19 89t52.5 68.5t80 44t102.5 15.5q80 0 146.5 -23.5t122.5 -68.5l-81 -116
q-48 35 -95.5 54t-95.5 19t-73 -20t-25 -48v-2q0 -19 7 -32t25 -24t49 -21.5t79 -22.5q56 -14 99 -32t72.5 -43.5t45 -60t15.5 -81.5v-2q0 -54 -19.5 -95.5t-55 -70t-84.5 -43.5t-107 -15z" />
    <glyph glyph-name="S" unicode="&#x15e;" horiz-adv-x="674" 
d="M351 -10q-84 0 -163 28.5t-145 87.5l91 109q50 -42 103 -66t117 -24q51 0 80.5 20t29.5 54v2q0 16 -6 28.5t-22.5 24t-46 21.5t-75.5 22q-56 14 -100.5 30t-76 41t-48.5 61t-17 90v2q0 49 19 89t52.5 68.5t80 44t102.5 15.5q80 0 146.5 -23.5t122.5 -68.5l-81 -116
q-48 35 -95.5 54t-95.5 19t-73 -20t-25 -48v-2q0 -19 7 -32t25 -24t49 -21.5t79 -22.5q56 -14 99 -32t72.5 -43.5t45 -60t15.5 -81.5v-2q0 -54 -19.5 -95.5t-55 -70t-84.5 -43.5t-107 -15z" />
    <glyph glyph-name="S" unicode="&#x15a;" horiz-adv-x="674" 
d="M351 -10q-84 0 -163 28.5t-145 87.5l91 109q50 -42 103 -66t117 -24q51 0 80.5 20t29.5 54v2q0 16 -6 28.5t-22.5 24t-46 21.5t-75.5 22q-56 14 -100.5 30t-76 41t-48.5 61t-17 90v2q0 49 19 89t52.5 68.5t80 44t102.5 15.5q80 0 146.5 -23.5t122.5 -68.5l-81 -116
q-48 35 -95.5 54t-95.5 19t-73 -20t-25 -48v-2q0 -19 7 -32t25 -24t49 -21.5t79 -22.5q56 -14 99 -32t72.5 -43.5t45 -60t15.5 -81.5v-2q0 -54 -19.5 -95.5t-55 -70t-84.5 -43.5t-107 -15z" />
    <glyph glyph-name="T" unicode="T" horiz-adv-x="681" 
d="M264 586h-224v142h601v-142h-223v-586h-154v586z" />
    <glyph glyph-name="T" unicode="&#x21a;" horiz-adv-x="681" 
d="M264 586h-224v142h601v-142h-223v-586h-154v586z" />
    <glyph glyph-name="T" unicode="&#x164;" horiz-adv-x="681" 
d="M264 586h-224v142h601v-142h-223v-586h-154v586z" />
    <glyph glyph-name="T" unicode="&#x162;" horiz-adv-x="681" 
d="M264 586h-224v142h601v-142h-223v-586h-154v586z" />
    <glyph glyph-name="U" unicode="U" horiz-adv-x="794" 
d="M395 -11q-73 0 -131 20.5t-98.5 61t-62.5 100.5t-22 140v417h154v-412q0 -92 43 -139t119 -47t119.5 45t43.5 135v418h153v-411q0 -83 -22.5 -144.5t-63.5 -102t-100 -61t-132 -20.5z" />
    <glyph glyph-name="U" unicode="&#x172;" horiz-adv-x="794" 
d="M395 -11q-73 0 -131 20.5t-98.5 61t-62.5 100.5t-22 140v417h154v-412q0 -92 43 -139t119 -47t119.5 45t43.5 135v418h153v-411q0 -83 -22.5 -144.5t-63.5 -102t-100 -61t-132 -20.5z" />
    <glyph glyph-name="U" unicode="&#x170;" horiz-adv-x="794" 
d="M395 -11q-73 0 -131 20.5t-98.5 61t-62.5 100.5t-22 140v417h154v-412q0 -92 43 -139t119 -47t119.5 45t43.5 135v418h153v-411q0 -83 -22.5 -144.5t-63.5 -102t-100 -61t-132 -20.5z" />
    <glyph glyph-name="U" unicode="&#x16e;" horiz-adv-x="794" 
d="M395 -11q-73 0 -131 20.5t-98.5 61t-62.5 100.5t-22 140v417h154v-412q0 -92 43 -139t119 -47t119.5 45t43.5 135v418h153v-411q0 -83 -22.5 -144.5t-63.5 -102t-100 -61t-132 -20.5z" />
    <glyph glyph-name="U" unicode="&#x16c;" horiz-adv-x="794" 
d="M395 -11q-73 0 -131 20.5t-98.5 61t-62.5 100.5t-22 140v417h154v-412q0 -92 43 -139t119 -47t119.5 45t43.5 135v418h153v-411q0 -83 -22.5 -144.5t-63.5 -102t-100 -61t-132 -20.5z" />
    <glyph glyph-name="U" unicode="&#x16a;" horiz-adv-x="794" 
d="M395 -11q-73 0 -131 20.5t-98.5 61t-62.5 100.5t-22 140v417h154v-412q0 -92 43 -139t119 -47t119.5 45t43.5 135v418h153v-411q0 -83 -22.5 -144.5t-63.5 -102t-100 -61t-132 -20.5z" />
    <glyph glyph-name="V" unicode="V" horiz-adv-x="788" 
d="M30 728h170l196 -522l196 522h166l-296 -733h-136z" />
    <glyph glyph-name="W" unicode="W" horiz-adv-x="1174" 
d="M36 728h165l156 -502l166 504h132l166 -504l155 502h161l-249 -733h-134l-167 485l-167 -485h-134z" />
    <glyph glyph-name="W" unicode="&#x1e84;" horiz-adv-x="1174" 
d="M36 728h165l156 -502l166 504h132l166 -504l155 502h161l-249 -733h-134l-167 485l-167 -485h-134z" />
    <glyph glyph-name="W" unicode="&#x1e82;" horiz-adv-x="1174" 
d="M36 728h165l156 -502l166 504h132l166 -504l155 502h161l-249 -733h-134l-167 485l-167 -485h-134z" />
    <glyph glyph-name="W" unicode="&#x1e80;" horiz-adv-x="1174" 
d="M36 728h165l156 -502l166 504h132l166 -504l155 502h161l-249 -733h-134l-167 485l-167 -485h-134z" />
    <glyph glyph-name="W" unicode="&#x174;" horiz-adv-x="1174" 
d="M36 728h165l156 -502l166 504h132l166 -504l155 502h161l-249 -733h-134l-167 485l-167 -485h-134z" />
    <glyph glyph-name="X" unicode="X" horiz-adv-x="769" 
d="M721 728l-245 -355l255 -373h-180l-169 256l-170 -256h-175l256 370l-245 358h180l158 -242l160 242h175z" />
    <glyph glyph-name="Y" unicode="Y" horiz-adv-x="753" 
d="M299 287l-281 441h180l179 -298l183 298h175l-282 -438v-290h-154v287z" />
    <glyph glyph-name="Y" unicode="&#x1ef2;" horiz-adv-x="753" 
d="M299 287l-281 441h180l179 -298l183 298h175l-282 -438v-290h-154v287z" />
    <glyph glyph-name="Y" unicode="&#x176;" horiz-adv-x="753" 
d="M299 287l-281 441h180l179 -298l183 298h175l-282 -438v-290h-154v287z" />
    <glyph glyph-name="Z" unicode="Z" horiz-adv-x="743" 
d="M70 116l406 477h-393v135h591v-116l-406 -477h406v-135h-604v116z" />
    <glyph glyph-name="Z" unicode="&#x17b;" horiz-adv-x="743" 
d="M70 116l406 477h-393v135h591v-116l-406 -477h406v-135h-604v116z" />
    <glyph glyph-name="Z" unicode="&#x179;" horiz-adv-x="743" 
d="M70 116l406 477h-393v135h591v-116l-406 -477h406v-135h-604v116z" />
    <glyph glyph-name="bracketleft" unicode="[" horiz-adv-x="489" 
d="M91 728h333v-119h-187v-625h187v-119h-333v863z" />
    <glyph glyph-name="backslash" unicode="\" horiz-adv-x="557" 
d="M-10 830h129l463 -963h-129z" />
    <glyph glyph-name="bracketright" unicode="]" horiz-adv-x="489" 
d="M65 -16h188v625h-188v119h333v-863h-333v119z" />
    <glyph glyph-name="underscore" unicode="_" horiz-adv-x="632" 
d="M2 -50h628v-116h-628v116z" />
    <glyph glyph-name="grave" unicode="`" 
d="M121 743l132 57l114 -181h-112z" />
    <glyph glyph-name="a" unicode="a" horiz-adv-x="623" 
d="M235 -11q-39 0 -74.5 11t-61.5 33t-41.5 54t-15.5 73v2q0 45 16.5 78.5t46.5 55.5t71 32.5t91 10.5q44 0 76.5 -6t62.5 -16v10q0 51 -31 78t-92 27q-45 0 -81 -8.5t-74 -22.5l-38 116q46 20 95.5 32.5t119.5 12.5q64 0 110.5 -16.5t76.5 -45.5q31 -31 45.5 -75.5
t14.5 -100.5v-324h-147v62q-29 -32 -70 -52.5t-100 -20.5zM280 95q57 0 92.5 28.5t35.5 73.5v30q-21 9 -48 15t-58 6q-53 0 -83 -21t-30 -59v-2q0 -34 25.5 -52.5t65.5 -18.5z" />
    <glyph glyph-name="a" unicode="&#x1fb;" horiz-adv-x="623" 
d="M235 -11q-39 0 -74.5 11t-61.5 33t-41.5 54t-15.5 73v2q0 45 16.5 78.5t46.5 55.5t71 32.5t91 10.5q44 0 76.5 -6t62.5 -16v10q0 51 -31 78t-92 27q-45 0 -81 -8.5t-74 -22.5l-38 116q46 20 95.5 32.5t119.5 12.5q64 0 110.5 -16.5t76.5 -45.5q31 -31 45.5 -75.5
t14.5 -100.5v-324h-147v62q-29 -32 -70 -52.5t-100 -20.5zM280 95q57 0 92.5 28.5t35.5 73.5v30q-21 9 -48 15t-58 6q-53 0 -83 -21t-30 -59v-2q0 -34 25.5 -52.5t65.5 -18.5z" />
    <glyph glyph-name="a" unicode="&#x105;" horiz-adv-x="623" 
d="M235 -11q-39 0 -74.5 11t-61.5 33t-41.5 54t-15.5 73v2q0 45 16.5 78.5t46.5 55.5t71 32.5t91 10.5q44 0 76.5 -6t62.5 -16v10q0 51 -31 78t-92 27q-45 0 -81 -8.5t-74 -22.5l-38 116q46 20 95.5 32.5t119.5 12.5q64 0 110.5 -16.5t76.5 -45.5q31 -31 45.5 -75.5
t14.5 -100.5v-324h-147v62q-29 -32 -70 -52.5t-100 -20.5zM280 95q57 0 92.5 28.5t35.5 73.5v30q-21 9 -48 15t-58 6q-53 0 -83 -21t-30 -59v-2q0 -34 25.5 -52.5t65.5 -18.5z" />
    <glyph glyph-name="a" unicode="&#x103;" horiz-adv-x="623" 
d="M235 -11q-39 0 -74.5 11t-61.5 33t-41.5 54t-15.5 73v2q0 45 16.5 78.5t46.5 55.5t71 32.5t91 10.5q44 0 76.5 -6t62.5 -16v10q0 51 -31 78t-92 27q-45 0 -81 -8.5t-74 -22.5l-38 116q46 20 95.5 32.5t119.5 12.5q64 0 110.5 -16.5t76.5 -45.5q31 -31 45.5 -75.5
t14.5 -100.5v-324h-147v62q-29 -32 -70 -52.5t-100 -20.5zM280 95q57 0 92.5 28.5t35.5 73.5v30q-21 9 -48 15t-58 6q-53 0 -83 -21t-30 -59v-2q0 -34 25.5 -52.5t65.5 -18.5z" />
    <glyph glyph-name="a" unicode="&#x101;" horiz-adv-x="623" 
d="M235 -11q-39 0 -74.5 11t-61.5 33t-41.5 54t-15.5 73v2q0 45 16.5 78.5t46.5 55.5t71 32.5t91 10.5q44 0 76.5 -6t62.5 -16v10q0 51 -31 78t-92 27q-45 0 -81 -8.5t-74 -22.5l-38 116q46 20 95.5 32.5t119.5 12.5q64 0 110.5 -16.5t76.5 -45.5q31 -31 45.5 -75.5
t14.5 -100.5v-324h-147v62q-29 -32 -70 -52.5t-100 -20.5zM280 95q57 0 92.5 28.5t35.5 73.5v30q-21 9 -48 15t-58 6q-53 0 -83 -21t-30 -59v-2q0 -34 25.5 -52.5t65.5 -18.5z" />
    <glyph glyph-name="b" unicode="b" horiz-adv-x="709" 
d="M404 -11q-64 0 -105.5 25.5t-70.5 60.5v-75h-152v759h152v-286q29 40 71 66.5t105 26.5q49 0 94.5 -19t81 -55.5t57 -90t21.5 -122.5v-2q0 -69 -21 -123t-56.5 -90.5t-81.5 -55.5t-95 -19zM366 119q28 0 53.5 11t45 31.5t30.5 50t11 65.5v2q0 36 -11 65t-30.5 49.5
t-45 32t-53.5 11.5q-29 0 -54 -11.5t-44.5 -32t-30.5 -49.5t-11 -65v-2q0 -36 11 -65t30.5 -49.5t44.5 -32t54 -11.5z" />
    <glyph glyph-name="c" unicode="c" horiz-adv-x="602" 
d="M338 -12q-63 0 -116 22.5t-91.5 61.5t-60 91t-21.5 112v2q0 59 21.5 111.5t60 92t92 62.5t117.5 23q78 0 130.5 -25t91.5 -69l-94 -100q-27 29 -56.5 46t-72.5 17q-31 0 -56.5 -12.5t-44 -33.5t-29 -49.5t-10.5 -60.5v-2q0 -33 10.5 -62t29.5 -50.5t46 -34t60 -12.5
q41 0 71.5 16.5t59.5 44.5l89 -89q-20 -23 -42.5 -41.5t-50 -32t-60.5 -21t-74 -7.5z" />
    <glyph glyph-name="c" unicode="&#x10d;" horiz-adv-x="602" 
d="M338 -12q-63 0 -116 22.5t-91.5 61.5t-60 91t-21.5 112v2q0 59 21.5 111.5t60 92t92 62.5t117.5 23q78 0 130.5 -25t91.5 -69l-94 -100q-27 29 -56.5 46t-72.5 17q-31 0 -56.5 -12.5t-44 -33.5t-29 -49.5t-10.5 -60.5v-2q0 -33 10.5 -62t29.5 -50.5t46 -34t60 -12.5
q41 0 71.5 16.5t59.5 44.5l89 -89q-20 -23 -42.5 -41.5t-50 -32t-60.5 -21t-74 -7.5z" />
    <glyph glyph-name="c" unicode="&#x10b;" horiz-adv-x="602" 
d="M338 -12q-63 0 -116 22.5t-91.5 61.5t-60 91t-21.5 112v2q0 59 21.5 111.5t60 92t92 62.5t117.5 23q78 0 130.5 -25t91.5 -69l-94 -100q-27 29 -56.5 46t-72.5 17q-31 0 -56.5 -12.5t-44 -33.5t-29 -49.5t-10.5 -60.5v-2q0 -33 10.5 -62t29.5 -50.5t46 -34t60 -12.5
q41 0 71.5 16.5t59.5 44.5l89 -89q-20 -23 -42.5 -41.5t-50 -32t-60.5 -21t-74 -7.5z" />
    <glyph glyph-name="c" unicode="&#x107;" horiz-adv-x="602" 
d="M338 -12q-63 0 -116 22.5t-91.5 61.5t-60 91t-21.5 112v2q0 59 21.5 111.5t60 92t92 62.5t117.5 23q78 0 130.5 -25t91.5 -69l-94 -100q-27 29 -56.5 46t-72.5 17q-31 0 -56.5 -12.5t-44 -33.5t-29 -49.5t-10.5 -60.5v-2q0 -33 10.5 -62t29.5 -50.5t46 -34t60 -12.5
q41 0 71.5 16.5t59.5 44.5l89 -89q-20 -23 -42.5 -41.5t-50 -32t-60.5 -21t-74 -7.5z" />
    <glyph glyph-name="d" unicode="d" horiz-adv-x="709" 
d="M305 -11q-49 0 -94.5 19t-81 55.5t-57 90t-21.5 123.5v2q0 69 21 122.5t56.5 90t81 55.5t95.5 19q64 0 105.5 -25t70.5 -60v278h152v-759h-152v82q-29 -40 -71 -66.5t-105 -26.5zM343 119q28 0 53.5 11.5t45 32t30.5 49.5t11 65v2q0 36 -11 65t-30.5 49.5t-45 32
t-53.5 11.5q-29 0 -54 -11t-44.5 -31.5t-30.5 -50t-11 -65.5v-2q0 -36 11 -65t30.5 -49.5t44.5 -32t54 -11.5z" />
    <glyph glyph-name="e" unicode="e" horiz-adv-x="644" 
d="M338 -12q-62 0 -115 21t-91.5 59t-60.5 90.5t-22 116.5v2q0 60 20 112.5t56.5 91.5t87 62t110.5 23q69 0 120 -25t84 -66.5t49.5 -96t16.5 -113.5q0 -9 -0.5 -19t-1.5 -21h-391q11 -57 48 -86t92 -29q42 0 73.5 13.5t64.5 44.5l87 -77q-39 -48 -95 -75.5t-132 -27.5z
M445 320q-8 55 -38.5 89.5t-83.5 34.5q-51 0 -83.5 -33.5t-41.5 -90.5h247z" />
    <glyph glyph-name="e" unicode="&#x11b;" horiz-adv-x="644" 
d="M338 -12q-62 0 -115 21t-91.5 59t-60.5 90.5t-22 116.5v2q0 60 20 112.5t56.5 91.5t87 62t110.5 23q69 0 120 -25t84 -66.5t49.5 -96t16.5 -113.5q0 -9 -0.5 -19t-1.5 -21h-391q11 -57 48 -86t92 -29q42 0 73.5 13.5t64.5 44.5l87 -77q-39 -48 -95 -75.5t-132 -27.5z
M445 320q-8 55 -38.5 89.5t-83.5 34.5q-51 0 -83.5 -33.5t-41.5 -90.5h247z" />
    <glyph glyph-name="e" unicode="&#x119;" horiz-adv-x="644" 
d="M338 -12q-62 0 -115 21t-91.5 59t-60.5 90.5t-22 116.5v2q0 60 20 112.5t56.5 91.5t87 62t110.5 23q69 0 120 -25t84 -66.5t49.5 -96t16.5 -113.5q0 -9 -0.5 -19t-1.5 -21h-391q11 -57 48 -86t92 -29q42 0 73.5 13.5t64.5 44.5l87 -77q-39 -48 -95 -75.5t-132 -27.5z
M445 320q-8 55 -38.5 89.5t-83.5 34.5q-51 0 -83.5 -33.5t-41.5 -90.5h247z" />
    <glyph glyph-name="e" unicode="&#x117;" horiz-adv-x="644" 
d="M338 -12q-62 0 -115 21t-91.5 59t-60.5 90.5t-22 116.5v2q0 60 20 112.5t56.5 91.5t87 62t110.5 23q69 0 120 -25t84 -66.5t49.5 -96t16.5 -113.5q0 -9 -0.5 -19t-1.5 -21h-391q11 -57 48 -86t92 -29q42 0 73.5 13.5t64.5 44.5l87 -77q-39 -48 -95 -75.5t-132 -27.5z
M445 320q-8 55 -38.5 89.5t-83.5 34.5q-51 0 -83.5 -33.5t-41.5 -90.5h247z" />
    <glyph glyph-name="e" unicode="&#x115;" horiz-adv-x="644" 
d="M338 -12q-62 0 -115 21t-91.5 59t-60.5 90.5t-22 116.5v2q0 60 20 112.5t56.5 91.5t87 62t110.5 23q69 0 120 -25t84 -66.5t49.5 -96t16.5 -113.5q0 -9 -0.5 -19t-1.5 -21h-391q11 -57 48 -86t92 -29q42 0 73.5 13.5t64.5 44.5l87 -77q-39 -48 -95 -75.5t-132 -27.5z
M445 320q-8 55 -38.5 89.5t-83.5 34.5q-51 0 -83.5 -33.5t-41.5 -90.5h247z" />
    <glyph glyph-name="e" unicode="&#x113;" horiz-adv-x="644" 
d="M338 -12q-62 0 -115 21t-91.5 59t-60.5 90.5t-22 116.5v2q0 60 20 112.5t56.5 91.5t87 62t110.5 23q69 0 120 -25t84 -66.5t49.5 -96t16.5 -113.5q0 -9 -0.5 -19t-1.5 -21h-391q11 -57 48 -86t92 -29q42 0 73.5 13.5t64.5 44.5l87 -77q-39 -48 -95 -75.5t-132 -27.5z
M445 320q-8 55 -38.5 89.5t-83.5 34.5q-51 0 -83.5 -33.5t-41.5 -90.5h247z" />
    <glyph glyph-name="f" unicode="f" horiz-adv-x="404" 
d="M104 426h-67v125h67v36q0 47 11 80t33 56q43 43 127 43q37 0 63 -4t48 -11v-126q-18 6 -35 9.5t-38 3.5q-29 0 -44.5 -15.5t-15.5 -48.5v-24h132v-124h-130v-426h-151v426z" />
    <glyph glyph-name="g" unicode="g" horiz-adv-x="709" 
d="M325 -168q-68 0 -130.5 15t-115.5 44l52 114q44 -25 89 -38.5t101 -13.5q162 0 162 155v30q-35 -43 -77.5 -68t-106.5 -25q-49 0 -93.5 17.5t-79 50.5t-55 81.5t-20.5 110.5v2q0 62 20.5 110t55 81t79.5 50.5t93 17.5q65 0 107.5 -24.5t74.5 -60.5v75h152v-433
q0 -146 -71 -217q-38 -38 -97.5 -56t-139.5 -18zM342 171q30 0 55.5 10t44.5 27.5t30 42t11 54.5v2q0 30 -11 54.5t-30 42t-44.5 27t-55.5 9.5t-55 -9.5t-44 -27t-29.5 -42t-10.5 -54.5v-2q0 -30 10.5 -54.5t29.5 -42.5t44 -27.5t55 -9.5z" />
    <glyph glyph-name="g" unicode="&#x123;" horiz-adv-x="709" 
d="M325 -168q-68 0 -130.5 15t-115.5 44l52 114q44 -25 89 -38.5t101 -13.5q162 0 162 155v30q-35 -43 -77.5 -68t-106.5 -25q-49 0 -93.5 17.5t-79 50.5t-55 81.5t-20.5 110.5v2q0 62 20.5 110t55 81t79.5 50.5t93 17.5q65 0 107.5 -24.5t74.5 -60.5v75h152v-433
q0 -146 -71 -217q-38 -38 -97.5 -56t-139.5 -18zM342 171q30 0 55.5 10t44.5 27.5t30 42t11 54.5v2q0 30 -11 54.5t-30 42t-44.5 27t-55.5 9.5t-55 -9.5t-44 -27t-29.5 -42t-10.5 -54.5v-2q0 -30 10.5 -54.5t29.5 -42.5t44 -27.5t55 -9.5z" />
    <glyph glyph-name="g" unicode="&#x121;" horiz-adv-x="709" 
d="M325 -168q-68 0 -130.5 15t-115.5 44l52 114q44 -25 89 -38.5t101 -13.5q162 0 162 155v30q-35 -43 -77.5 -68t-106.5 -25q-49 0 -93.5 17.5t-79 50.5t-55 81.5t-20.5 110.5v2q0 62 20.5 110t55 81t79.5 50.5t93 17.5q65 0 107.5 -24.5t74.5 -60.5v75h152v-433
q0 -146 -71 -217q-38 -38 -97.5 -56t-139.5 -18zM342 171q30 0 55.5 10t44.5 27.5t30 42t11 54.5v2q0 30 -11 54.5t-30 42t-44.5 27t-55.5 9.5t-55 -9.5t-44 -27t-29.5 -42t-10.5 -54.5v-2q0 -30 10.5 -54.5t29.5 -42.5t44 -27.5t55 -9.5z" />
    <glyph glyph-name="g" unicode="&#x11f;" horiz-adv-x="709" 
d="M325 -168q-68 0 -130.5 15t-115.5 44l52 114q44 -25 89 -38.5t101 -13.5q162 0 162 155v30q-35 -43 -77.5 -68t-106.5 -25q-49 0 -93.5 17.5t-79 50.5t-55 81.5t-20.5 110.5v2q0 62 20.5 110t55 81t79.5 50.5t93 17.5q65 0 107.5 -24.5t74.5 -60.5v75h152v-433
q0 -146 -71 -217q-38 -38 -97.5 -56t-139.5 -18zM342 171q30 0 55.5 10t44.5 27.5t30 42t11 54.5v2q0 30 -11 54.5t-30 42t-44.5 27t-55.5 9.5t-55 -9.5t-44 -27t-29.5 -42t-10.5 -54.5v-2q0 -30 10.5 -54.5t29.5 -42.5t44 -27.5t55 -9.5z" />
    <glyph glyph-name="h" unicode="h" horiz-adv-x="655" 
d="M76 759h152v-283q13 18 29.5 34t36.5 28.5t44.5 20t54.5 7.5q91 0 141 -55t50 -152v-359h-152v311q0 58 -26 88t-74 30t-76 -30t-28 -88v-311h-152v759z" />
    <glyph glyph-name="h" unicode="&#x127;" horiz-adv-x="655" 
d="M76 759h152v-283q13 18 29.5 34t36.5 28.5t44.5 20t54.5 7.5q91 0 141 -55t50 -152v-359h-152v311q0 58 -26 88t-74 30t-76 -30t-28 -88v-311h-152v759z" />
    <glyph glyph-name="i" unicode="i" horiz-adv-x="319" 
d="M79 758h160v-136h-160v136zM84 556h151v-556h-151v556z" />
    <glyph glyph-name="i" unicode="&#x12f;" horiz-adv-x="319" 
d="M79 758h160v-136h-160v136zM84 556h151v-556h-151v556z" />
    <glyph glyph-name="i" unicode="&#x12d;" horiz-adv-x="319" 
d="M79 758h160v-136h-160v136zM84 556h151v-556h-151v556z" />
    <glyph glyph-name="i" unicode="&#x12b;" horiz-adv-x="319" 
d="M79 758h160v-136h-160v136zM84 556h151v-556h-151v556z" />
    <glyph glyph-name="j" unicode="j" horiz-adv-x="319" 
d="M79 758h160v-136h-160v136zM60 -170q-21 0 -35.5 1.5t-31.5 5.5v119q10 -2 18 -3t16 -1q25 0 41 15.5t16 50.5v538h151v-550q0 -91 -44.5 -133.5t-130.5 -42.5z" />
    <glyph glyph-name="k" unicode="k" horiz-adv-x="622" 
d="M76 759h152v-414l194 211h182l-214 -221l221 -335h-176l-147 231l-60 -64v-167h-152v759z" />
    <glyph glyph-name="k" unicode="&#x137;" horiz-adv-x="622" 
d="M76 759h152v-414l194 211h182l-214 -221l221 -335h-176l-147 231l-60 -64v-167h-152v759z" />
    <glyph glyph-name="l" unicode="l" horiz-adv-x="319" 
d="M84 759h151v-759h-151v759z" />
    <glyph glyph-name="l" unicode="&#x140;" horiz-adv-x="319" 
d="M84 759h151v-759h-151v759z" />
    <glyph glyph-name="l" unicode="&#x13e;" horiz-adv-x="319" 
d="M84 759h151v-759h-151v759z" />
    <glyph glyph-name="l" unicode="&#x13c;" horiz-adv-x="319" 
d="M84 759h151v-759h-151v759z" />
    <glyph glyph-name="l" unicode="&#x13a;" horiz-adv-x="319" 
d="M84 759h151v-759h-151v759z" />
    <glyph glyph-name="m" unicode="m" horiz-adv-x="996" 
d="M76 556h152v-80q13 18 29.5 34t36.5 28.5t44.5 20t54.5 7.5q56 0 96 -23.5t62 -66.5q36 44 81 67t103 23q89 0 139 -52t50 -154v-360h-152v311q0 58 -24.5 88t-71.5 30q-46 0 -73 -30t-27 -88v-311h-152v311q0 58 -25 88t-71 30t-73 -30.5t-27 -87.5v-311h-152v556z" />
    <glyph glyph-name="n" unicode="n" horiz-adv-x="655" 
d="M76 556h152v-80q13 18 29.5 34t36.5 28.5t44.5 20t54.5 7.5q91 0 141 -55t50 -152v-359h-152v311q0 58 -26 88t-74 30t-76 -30t-28 -88v-311h-152v556z" />
    <glyph glyph-name="n" unicode="&#x148;" horiz-adv-x="655" 
d="M76 556h152v-80q13 18 29.5 34t36.5 28.5t44.5 20t54.5 7.5q91 0 141 -55t50 -152v-359h-152v311q0 58 -26 88t-74 30t-76 -30t-28 -88v-311h-152v556z" />
    <glyph glyph-name="n" unicode="&#x146;" horiz-adv-x="655" 
d="M76 556h152v-80q13 18 29.5 34t36.5 28.5t44.5 20t54.5 7.5q91 0 141 -55t50 -152v-359h-152v311q0 58 -26 88t-74 30t-76 -30t-28 -88v-311h-152v556z" />
    <glyph glyph-name="n" unicode="&#x144;" horiz-adv-x="655" 
d="M76 556h152v-80q13 18 29.5 34t36.5 28.5t44.5 20t54.5 7.5q91 0 141 -55t50 -152v-359h-152v311q0 58 -26 88t-74 30t-76 -30t-28 -88v-311h-152v556z" />
    <glyph glyph-name="o" unicode="o" horiz-adv-x="697" 
d="M347 -12q-64 0 -118.5 22.5t-94.5 61t-62.5 91t-22.5 112.5v2q0 60 22.5 112.5t63 91.5t95.5 62t120 23q64 0 118.5 -22.5t94.5 -61.5t62.5 -91t22.5 -112v-2q0 -60 -22.5 -112.5t-63 -92t-95.5 -62t-120 -22.5zM350 118q34 0 61.5 12.5t47 34t29.5 50t10 60.5v2
q0 32 -11 60.5t-31 50.5t-47.5 34.5t-61.5 12.5q-35 0 -62 -12.5t-46.5 -33.5t-29.5 -49.5t-10 -60.5v-2q0 -32 11 -61t31 -50.5t47.5 -34.5t61.5 -13z" />
    <glyph glyph-name="o" unicode="&#x1ff;" horiz-adv-x="697" 
d="M347 -12q-64 0 -118.5 22.5t-94.5 61t-62.5 91t-22.5 112.5v2q0 60 22.5 112.5t63 91.5t95.5 62t120 23q64 0 118.5 -22.5t94.5 -61.5t62.5 -91t22.5 -112v-2q0 -60 -22.5 -112.5t-63 -92t-95.5 -62t-120 -22.5zM350 118q34 0 61.5 12.5t47 34t29.5 50t10 60.5v2
q0 32 -11 60.5t-31 50.5t-47.5 34.5t-61.5 12.5q-35 0 -62 -12.5t-46.5 -33.5t-29.5 -49.5t-10 -60.5v-2q0 -32 11 -61t31 -50.5t47.5 -34.5t61.5 -13z" />
    <glyph glyph-name="o" unicode="&#x151;" horiz-adv-x="697" 
d="M347 -12q-64 0 -118.5 22.5t-94.5 61t-62.5 91t-22.5 112.5v2q0 60 22.5 112.5t63 91.5t95.5 62t120 23q64 0 118.5 -22.5t94.5 -61.5t62.5 -91t22.5 -112v-2q0 -60 -22.5 -112.5t-63 -92t-95.5 -62t-120 -22.5zM350 118q34 0 61.5 12.5t47 34t29.5 50t10 60.5v2
q0 32 -11 60.5t-31 50.5t-47.5 34.5t-61.5 12.5q-35 0 -62 -12.5t-46.5 -33.5t-29.5 -49.5t-10 -60.5v-2q0 -32 11 -61t31 -50.5t47.5 -34.5t61.5 -13z" />
    <glyph glyph-name="o" unicode="&#x14f;" horiz-adv-x="697" 
d="M347 -12q-64 0 -118.5 22.5t-94.5 61t-62.5 91t-22.5 112.5v2q0 60 22.5 112.5t63 91.5t95.5 62t120 23q64 0 118.5 -22.5t94.5 -61.5t62.5 -91t22.5 -112v-2q0 -60 -22.5 -112.5t-63 -92t-95.5 -62t-120 -22.5zM350 118q34 0 61.5 12.5t47 34t29.5 50t10 60.5v2
q0 32 -11 60.5t-31 50.5t-47.5 34.5t-61.5 12.5q-35 0 -62 -12.5t-46.5 -33.5t-29.5 -49.5t-10 -60.5v-2q0 -32 11 -61t31 -50.5t47.5 -34.5t61.5 -13z" />
    <glyph glyph-name="o" unicode="&#x14d;" horiz-adv-x="697" 
d="M347 -12q-64 0 -118.5 22.5t-94.5 61t-62.5 91t-22.5 112.5v2q0 60 22.5 112.5t63 91.5t95.5 62t120 23q64 0 118.5 -22.5t94.5 -61.5t62.5 -91t22.5 -112v-2q0 -60 -22.5 -112.5t-63 -92t-95.5 -62t-120 -22.5zM350 118q34 0 61.5 12.5t47 34t29.5 50t10 60.5v2
q0 32 -11 60.5t-31 50.5t-47.5 34.5t-61.5 12.5q-35 0 -62 -12.5t-46.5 -33.5t-29.5 -49.5t-10 -60.5v-2q0 -32 11 -61t31 -50.5t47.5 -34.5t61.5 -13z" />
    <glyph glyph-name="p" unicode="p" horiz-adv-x="709" 
d="M76 556h152v-83q29 40 71 66.5t105 26.5q49 0 94.5 -19t81 -55.5t57 -90t21.5 -122.5v-2q0 -69 -21 -123t-56.5 -90.5t-81.5 -55.5t-95 -19q-64 0 -105.5 25.5t-70.5 60.5v-241h-152v722zM366 119q28 0 53.5 11t45 31.5t30.5 50t11 65.5v2q0 36 -11 65t-30.5 49.5t-45 32
t-53.5 11.5q-29 0 -54 -11.5t-44.5 -32t-30.5 -49.5t-11 -65v-2q0 -36 11 -65t30.5 -49.5t44.5 -32t54 -11.5z" />
    <glyph glyph-name="q" unicode="q" horiz-adv-x="709" 
d="M481 82q-29 -40 -71 -66.5t-105 -26.5q-49 0 -94.5 19t-81 55.5t-57 90t-21.5 123.5v2q0 69 21 122.5t56.5 90t81 55.5t95.5 19q64 0 105.5 -25t70.5 -60v75h152v-722h-152v248zM343 119q28 0 53.5 11.5t45 32t30.5 49.5t11 65v2q0 36 -11 65t-30.5 49.5t-45 32
t-53.5 11.5q-29 0 -54 -11t-44.5 -31.5t-30.5 -50t-11 -65.5v-2q0 -36 11 -65t30.5 -49.5t44.5 -32t54 -11.5z" />
    <glyph glyph-name="r" unicode="r" horiz-adv-x="442" 
d="M76 556h152v-115q25 59 67.5 93.5t113.5 31.5v-159h-8q-80 0 -126.5 -49t-46.5 -151v-207h-152v556z" />
    <glyph glyph-name="s" unicode="s" horiz-adv-x="530" 
d="M270 -10q-59 0 -121 20t-117 63l66 101q45 -33 91 -50t85 -17q36 0 53.5 12.5t17.5 32.5v2q0 13 -9.5 22.5t-25.5 17t-37.5 14t-44.5 13.5q-30 9 -60 21t-54 30.5t-39 46.5t-15 68v2q0 42 16 74.5t43.5 55t64.5 34t79 11.5q53 0 107 -17t99 -47l-58 -105q-42 24 -81 38
t-71 14q-30 0 -46 -12t-16 -30v-2q0 -12 9.5 -21.5t25.5 -17.5t37 -15t44 -15q29 -9 59 -21.5t54.5 -31.5t40 -46t15.5 -65v-2q0 -46 -16.5 -79.5t-45 -55.5t-67 -32.5t-83.5 -10.5z" />
    <glyph glyph-name="t" unicode="t" horiz-adv-x="439" 
d="M264 -9q-36 0 -66 8t-51 27t-33 51t-12 80v269h-67v130h67v144h152v-144h134v-130h-134v-244q0 -57 54 -57q42 0 78 19v-122q-25 -14 -54 -22.5t-68 -8.5z" />
    <glyph glyph-name="t" unicode="&#x21b;" horiz-adv-x="439" 
d="M264 -9q-36 0 -66 8t-51 27t-33 51t-12 80v269h-67v130h67v144h152v-144h134v-130h-134v-244q0 -57 54 -57q42 0 78 19v-122q-25 -14 -54 -22.5t-68 -8.5z" />
    <glyph glyph-name="t" unicode="&#x165;" horiz-adv-x="439" 
d="M264 -9q-36 0 -66 8t-51 27t-33 51t-12 80v269h-67v130h67v144h152v-144h134v-130h-134v-244q0 -57 54 -57q42 0 78 19v-122q-25 -14 -54 -22.5t-68 -8.5z" />
    <glyph glyph-name="t" unicode="&#x163;" horiz-adv-x="439" 
d="M264 -9q-36 0 -66 8t-51 27t-33 51t-12 80v269h-67v130h67v144h152v-144h134v-130h-134v-244q0 -57 54 -57q42 0 78 19v-122q-25 -14 -54 -22.5t-68 -8.5z" />
    <glyph glyph-name="u" unicode="u" horiz-adv-x="655" 
d="M262 -11q-91 0 -140.5 55.5t-49.5 152.5v359h151v-311q0 -58 26 -88t74 -30t76 30t28 88v311h152v-556h-152v80q-14 -18 -30 -34.5t-36 -29t-44.5 -20t-54.5 -7.5z" />
    <glyph glyph-name="v" unicode="v" horiz-adv-x="631" 
d="M26 556h161l129 -380l131 380h158l-221 -560h-137z" />
    <glyph glyph-name="w" unicode="w" horiz-adv-x="903" 
d="M31 556h154l93 -346l109 348h130l109 -349l96 347h151l-175 -560h-137l-110 349l-112 -349h-136z" />
    <glyph glyph-name="x" unicode="x" horiz-adv-x="614" 
d="M308 389l110 167h159l-189 -271l197 -285h-163l-117 179l-117 -179h-159l197 283l-189 273h163z" />
    <glyph glyph-name="y" unicode="y" horiz-adv-x="631" 
d="M445 556h158l-215 -570q-16 -42 -33.5 -72t-39 -48.5t-48.5 -27t-62 -8.5q-42 0 -75 10.5t-63 27.5l51 110q16 -9 34 -15t35 -6q22 0 35 8.5t25 32.5l-221 558h161l132 -385z" />
    <glyph glyph-name="y" unicode="&#x1ef3;" horiz-adv-x="631" 
d="M445 556h158l-215 -570q-16 -42 -33.5 -72t-39 -48.5t-48.5 -27t-62 -8.5q-42 0 -75 10.5t-63 27.5l51 110q16 -9 34 -15t35 -6q22 0 35 8.5t25 32.5l-221 558h161l132 -385z" />
    <glyph glyph-name="y" unicode="&#x177;" horiz-adv-x="631" 
d="M445 556h158l-215 -570q-16 -42 -33.5 -72t-39 -48.5t-48.5 -27t-62 -8.5q-42 0 -75 10.5t-63 27.5l51 110q16 -9 34 -15t35 -6q22 0 35 8.5t25 32.5l-221 558h161l132 -385z" />
    <glyph glyph-name="z" unicode="z" horiz-adv-x="593" 
d="M56 106l294 327h-284v123h474v-107l-295 -326h295v-123h-484v106z" />
    <glyph glyph-name="braceleft" unicode="{" horiz-adv-x="517" 
d="M437 -147q-71 13 -118 32t-74.5 44.5t-38.5 58t-11 72.5q0 6 0.5 15t1 19.5t1 20.5t0.5 17q0 61 -26.5 85t-88.5 24h-27v115h27q62 0 88.5 24t26.5 85q0 7 -0.5 17t-1 20.5t-1 19.5t-0.5 15q0 40 11 72.5t38.5 58t74.5 44.5t118 32l26 -101q-42 -12 -67.5 -24t-39 -27
t-18 -33.5t-4.5 -43.5q0 -15 1.5 -37.5t1.5 -39.5q0 -57 -28 -90t-81 -50q53 -17 81 -49.5t28 -90.5q0 -16 -1.5 -38.5t-1.5 -38.5q0 -24 4.5 -42.5t18 -33.5t39 -27t67.5 -24z" />
    <glyph glyph-name="bar" unicode="|" horiz-adv-x="368" 
d="M124 830h120v-963h-120v963z" />
    <glyph glyph-name="braceright" unicode="}" horiz-adv-x="517" 
d="M54 -46q42 12 67.5 24t39 27t18 33.5t4.5 42.5q0 16 -1.5 38.5t-1.5 38.5q0 58 28 90.5t81 49.5q-53 17 -81 50t-28 90q0 17 1.5 39.5t1.5 37.5q0 25 -4.5 43.5t-18 33.5t-39 27t-67.5 24l26 101q71 -13 118 -32t74.5 -44.5t38.5 -58t11 -72.5q0 -6 -0.5 -15t-1 -19.5
t-1 -20.5t-0.5 -17q0 -61 26.5 -85t88.5 -24h27v-115h-27q-62 0 -88.5 -24t-26.5 -85q0 -7 0.5 -17t1 -20.5t1 -19.5t0.5 -15q0 -40 -11 -72.5t-38.5 -58t-74.5 -44.5t-118 -32z" />
    <glyph glyph-name="exclamdown" unicode="&#xa1;" horiz-adv-x="340" 
d="M89 728h162v-162h-162v162zM81 24l47 460h84l47 -460v-24h-178v24z" />
    <glyph glyph-name="cent" unicode="&#xa2;" horiz-adv-x="612" 
d="M452 642q67 -22 115 -77l-90 -97q-30 29 -55 41l-59 -297h1q33 3 62 19t55 41l86 -87q-42 -46 -94.5 -75t-129.5 -30h-1l-17 -86h-104l20 103q-41 15 -75.5 41t-59 61.5t-38.5 78t-14 89.5v2q0 60 21.5 113t60.5 92t92 62t116 23h6l15 75h105zM201 369q0 -47 18 -83
t52 -56l58 297h-1q-27 -2 -50.5 -15t-40.5 -34t-26.5 -48.5t-9.5 -58.5v-2z" />
    <glyph glyph-name="sterling" unicode="&#xa3;" horiz-adv-x="678" 
d="M67 100l80 26v154h-80v127h80v87q0 57 16 102t46 76q66 66 183 66q44 0 79 -9t63 -25t50 -38t41 -47l-117 -93q-27 35 -53 52.5t-61 17.5q-39 0 -63 -25q-29 -27 -29 -81v-83h242v-127h-242v-147h321v-133h-556v100z" />
    <glyph glyph-name="yen" unicode="&#xa5;" horiz-adv-x="721" 
d="M94 381h152l-226 347h177l165 -276l168 276h172l-227 -347h153v-108h-193v-67h193v-108h-193v-98h-148v98h-193v108h193v67h-193v108z" />
    <glyph glyph-name="dieresis" unicode="&#xa8;" 
d="M297 756h147v-137h-147v137zM84 756h147v-137h-147v137z" />
    <glyph glyph-name="copyright" unicode="&#xa9;" horiz-adv-x="871" 
d="M435 -12q-80 0 -148.5 29.5t-119 80.5t-79.5 119t-29 145v2q0 77 29.5 145.5t80.5 119.5t120 81t148 30t147.5 -29.5t119 -80.5t79.5 -119t29 -145v-2q0 -77 -29 -145.5t-80 -119.5t-120 -81t-148 -30zM435 28q71 0 132 26.5t106 72.5t70.5 107t25.5 130v2
q0 69 -25.5 130t-70 106.5t-105 71.5t-131.5 26q-72 0 -133 -26.5t-106 -72.5t-70.5 -107t-25.5 -130v-2q0 -69 25.5 -130t70 -106.5t105.5 -71.5t132 -26zM440 163q-44 0 -81.5 16t-64.5 43.5t-42.5 64.5t-15.5 80v2q0 42 15 80t42.5 66t65.5 44.5t84 16.5q57 0 93 -17
t64 -45l-55 -64q-23 20 -48 32.5t-54 12.5q-26 0 -47 -10t-36.5 -27t-24 -39.5t-8.5 -48.5v-2q0 -25 8.5 -47.5t23.5 -39.5t36.5 -27t47.5 -10q34 0 57 12.5t47 34.5l56 -57q-31 -33 -68.5 -52t-94.5 -19z" />
    <glyph glyph-name="ordfeminine" unicode="&#xaa;" horiz-adv-x="414" 
d="M164 416q-44 0 -74.5 24t-30.5 69v2q0 51 34.5 74.5t89.5 23.5q23 0 41 -3.5t35 -8.5v5q0 27 -17.5 42t-50.5 15q-25 0 -44.5 -4.5t-40.5 -12.5l-21 64q26 12 52.5 18.5t65.5 6.5q69 0 103 -34q17 -17 25 -42t8 -55v-178h-81v34q-16 -19 -39 -29.5t-55 -10.5zM189 475
q31 0 51 15.5t20 39.5v17q-13 5 -27.5 8t-31.5 3q-28 0 -44 -11t-16 -32v-2q0 -17 13 -27.5t35 -10.5zM56 356h287v-67h-287v67z" />
    <glyph glyph-name="guillemotleft" unicode="&#xab;" horiz-adv-x="671" 
d="M326 274v8l184 230l106 -52l-126 -181l126 -181l-106 -54zM47 274v8l184 230l106 -52l-126 -181l126 -181l-106 -54z" />
    <glyph glyph-name="registered" unicode="&#xae;" horiz-adv-x="394" 
d="M197 374q-38 0 -71 14.5t-57.5 39t-38.5 57.5t-14 70v1q0 37 14 70t38.5 58t57.5 39.5t71 14.5t71 -14.5t57.5 -39t38.5 -57.5t14 -70v-1q0 -37 -14 -70t-38.5 -58t-57.5 -39.5t-71 -14.5zM197 394q34 0 63 13t50.5 35t34 51.5t12.5 62.5v1q0 33 -12 62.5t-33.5 51.5
t-51 35t-63.5 13t-63.5 -13t-51 -35t-33.5 -52t-12 -63v-1q0 -33 12 -62.5t33.5 -51t50.5 -34.5t64 -13zM119 655h90q35 0 57.5 -15.5t22.5 -48.5v-1q0 -21 -11 -37t-29 -22l46 -67h-61l-39 58h-24v-58h-52v191zM206 563q14 0 22 6.5t8 17.5v1q0 10 -8 16.5t-22 5.5h-35v-47
h35z" />
    <glyph glyph-name="macron" unicode="&#xaf;" 
d="M79 731h370v-106h-370v106z" />
    <glyph glyph-name="degree" unicode="&#xb0;" horiz-adv-x="505" 
d="M253 385q-35 0 -67.5 14t-57.5 38t-39.5 55.5t-14.5 66.5v2q0 35 14.5 66.5t39.5 55t57.5 37.5t67.5 14t67.5 -14t57 -37.5t39 -55t14.5 -66.5v-2q0 -35 -14.5 -66.5t-39 -55.5t-57 -38t-67.5 -14zM253 462q21 0 38.5 8t30 21t20 30.5t7.5 37.5v2q0 19 -7.5 37t-20 31
t-30 21t-38.5 8t-39 -8t-30.5 -21t-20 -31t-7.5 -37v-2q0 -20 7.5 -37.5t20 -30.5t30.5 -21t39 -8z" />
    <glyph glyph-name="acute" unicode="&#xb4;" 
d="M275 800l132 -57l-134 -124h-112z" />
    <glyph glyph-name="periodcentered" unicode="&#xb7;" horiz-adv-x="302" 
d="M70 402h162v-161h-162v161z" />
    <glyph glyph-name="cedilla" unicode="&#xb8;" 
d="M129 -125l100 145h109l-81 -198z" />
    <glyph glyph-name="ordmasculine" unicode="&#xba;" horiz-adv-x="414" 
d="M206 415q-34 0 -63 12t-50.5 33.5t-33.5 50t-12 61.5v2q0 33 12.5 62t34 50.5t51 34t63.5 12.5t63 -12t50 -33.5t33 -50t12 -61.5v-3q0 -33 -12 -62t-33.5 -50t-51 -33.5t-63.5 -12.5zM57 356h300v-67h-300v67zM208 488q35 0 55 25t20 59v2q0 35 -21 60.5t-56 25.5
t-55.5 -25t-20.5 -59v-3q0 -34 21.5 -59.5t56.5 -25.5z" />
    <glyph glyph-name="guillemotright" unicode="&#xbb;" horiz-adv-x="671" 
d="M333 96l126 181l-126 181l106 54l184 -230v-8l-184 -230zM55 96l126 181l-126 181l106 54l184 -230v-8l-184 -230z" />
    <glyph glyph-name="questiondown" unicode="&#xbf;" horiz-adv-x="573" 
d="M233 728h163v-162h-163v162zM294 -9q-56 0 -102 14t-79 41.5t-51.5 67.5t-18.5 91v2q0 49 16 85t44 60.5t65.5 40t80.5 23.5l12 68h101l24 -169l-6 -5q-99 -4 -141.5 -29.5t-42.5 -69.5v-2q0 -37 26.5 -58t74.5 -21q86 0 158 74l92 -100q-45 -51 -106.5 -82t-146.5 -31z
" />
    <glyph glyph-name="Agrave" unicode="&#xc0;" horiz-adv-x="830" 
d="M344 733h142l313 -733h-161l-68 166h-315l-68 -166h-157zM515 302l-102 247l-103 -247h205zM360 796l-140 103l132 58l124 -161h-116z" />
    <glyph glyph-name="Aacute" unicode="&#xc1;" horiz-adv-x="830" 
d="M344 733h142l313 -733h-161l-68 166h-315l-68 -166h-157zM515 302l-102 247l-103 -247h205zM477 957l132 -58l-140 -103h-116z" />
    <glyph glyph-name="Acircumflex" unicode="&#xc2;" horiz-adv-x="830" 
d="M344 733h142l313 -733h-161l-68 166h-315l-68 -166h-157zM515 302l-102 247l-103 -247h205zM343 942h144l131 -150h-122l-82 58l-82 -58h-120z" />
    <glyph glyph-name="Atilde" unicode="&#xc3;" horiz-adv-x="830" 
d="M344 733h142l313 -733h-161l-68 166h-315l-68 -166h-157zM515 302l-102 247l-103 -247h205zM507 796q-26 0 -51 7.5t-48 16.5q-19 7 -34 11.5t-27 4.5q-24 0 -36.5 -12.5t-23.5 -38.5l-82 26q9 32 20 58t26 44t35 28t47 10q26 0 51 -7.5t48 -16.5q19 -7 34 -12t27 -5
q24 0 36.5 13t23.5 38l81 -25q-17 -65 -45.5 -102.5t-81.5 -37.5z" />
    <glyph glyph-name="Adieresis" unicode="&#xc4;" horiz-adv-x="830" 
d="M344 733h142l313 -733h-161l-68 166h-315l-68 -166h-157zM515 302l-102 247l-103 -247h205zM453 925h148v-129h-148v129zM229 925h148v-129h-148v129z" />
    <glyph glyph-name="Aring" unicode="&#xc5;" horiz-adv-x="830" 
d="M325 690q-38 32 -38 82q0 25 10.5 46t28 36t40.5 23.5t49 8.5t49 -8.5t40.5 -23.5t28 -36t10.5 -46q0 -26 -10.5 -46.5t-28.5 -35.5l295 -690h-161l-68 166h-315l-68 -166h-157zM515 302l-102 247l-103 -247h205zM415 714q29 0 47.5 17t18.5 41q0 25 -18.5 42t-47.5 17
q-30 0 -48 -17t-18 -42q0 -24 18 -41t48 -17z" />
    <glyph glyph-name="AE" unicode="&#xc6;" horiz-adv-x="1095" 
d="M409 728h621v-137h-369v-156h322v-137h-322v-161h374v-137h-527v166h-248l-89 -166h-157zM508 302v293h-19l-157 -293h176z" />
    <glyph glyph-name="AE" unicode="&#x1fc;" horiz-adv-x="1095" 
d="M409 728h621v-137h-369v-156h322v-137h-322v-161h374v-137h-527v166h-248l-89 -166h-157zM508 302v293h-19l-157 -293h176z" />
    <glyph glyph-name="Ccedilla" unicode="&#xc7;" horiz-adv-x="776" 
d="M263 -125l84 122q-63 14 -116 47.5t-91 81.5t-59 108t-21 128v2q0 78 28 146.5t78 119.5t119.5 80.5t153.5 29.5q51 0 93 -8t76.5 -23t63 -35.5t54.5 -45.5l-98 -113q-43 39 -88 61.5t-102 22.5q-47 0 -87 -18.5t-69 -50t-45 -74t-16 -90.5v-2q0 -48 16 -90.5t44.5 -75
t68.5 -51t88 -18.5q32 0 58 6t49.5 17.5t44.5 27.5t43 36l98 -99q-26 -28 -54.5 -50.5t-61.5 -39t-71.5 -26.5t-84.5 -12l-68 -167z" />
    <glyph glyph-name="Egrave" unicode="&#xc8;" horiz-adv-x="705" 
d="M314 786l-140 103l132 58l124 -161h-116zM93 728h547v-137h-395v-156h348v-137h-348v-161h400v-137h-552v728z" />
    <glyph glyph-name="Eacute" unicode="&#xc9;" horiz-adv-x="705" 
d="M431 947l132 -58l-140 -103h-116zM93 728h547v-137h-395v-156h348v-137h-348v-161h400v-137h-552v728z" />
    <glyph glyph-name="Ecircumflex" unicode="&#xca;" horiz-adv-x="705" 
d="M93 728h547v-137h-395v-156h348v-137h-348v-161h400v-137h-552v728zM296 936h144l131 -150h-122l-82 58l-82 -58h-120z" />
    <glyph glyph-name="Edieresis" unicode="&#xcb;" horiz-adv-x="705" 
d="M406 915h148v-129h-148v129zM182 915h148v-129h-148v129zM93 728h547v-137h-395v-156h348v-137h-348v-161h400v-137h-552v728z" />
    <glyph glyph-name="Igrave" unicode="&#xcc;" horiz-adv-x="354" 
d="M100 728h154v-728h-154v728zM123 786l-140 103l132 58l124 -161h-116z" />
    <glyph glyph-name="Iacute" unicode="&#xcd;" horiz-adv-x="354" 
d="M100 728h154v-728h-154v728zM240 947l132 -58l-140 -103h-116z" />
    <glyph glyph-name="Icircumflex" unicode="&#xce;" horiz-adv-x="354" 
d="M100 728h154v-728h-154v728zM106 936h144l131 -150h-122l-82 58l-82 -58h-120z" />
    <glyph glyph-name="Idieresis" unicode="&#xcf;" horiz-adv-x="354" 
d="M100 728h154v-728h-154v728zM216 915h148v-129h-148v129zM-8 915h148v-129h-148v129z" />
    <glyph glyph-name="Eth" unicode="&#xd0;" horiz-adv-x="852" 
d="M124 313h-78v106h78v309h281q86 0 157 -27.5t122 -76.5t79.5 -115t28.5 -143v-2q0 -77 -28.5 -143.5t-79.5 -115.5t-122 -77t-157 -28h-281v313zM278 313v-174h127q51 0 92.5 16.5t71.5 45.5t46 70t16 91v2q0 49 -16 90.5t-46 71.5t-71.5 46.5t-92.5 16.5h-127v-170h161
v-106h-161z" />
    <glyph glyph-name="Ntilde" unicode="&#xd1;" horiz-adv-x="830" 
d="M507 786q-26 0 -51 7.5t-48 16.5q-19 7 -34 11.5t-27 4.5q-24 0 -36.5 -12.5t-23.5 -38.5l-82 26q9 32 20 58t26 44t35 28t47 10q26 0 51 -7.5t48 -16.5q19 -7 34 -12t27 -5q24 0 36.5 13t23.5 38l81 -25q-17 -65 -45.5 -102.5t-81.5 -37.5zM93 728h141l351 -459v459h152
v-728h-131l-362 474v-474h-151v728z" />
    <glyph glyph-name="Ograve" unicode="&#xd2;" horiz-adv-x="892" 
d="M392 796l-140 103l132 58l124 -161h-116zM445 -12q-84 0 -154.5 29.5t-122 80t-80 118.5t-28.5 146v2q0 77 29 145.5t80.5 119.5t122.5 81t155 30t154.5 -29.5t122 -80t80 -118.5t28.5 -146v-2q0 -77 -29 -145.5t-80.5 -119.5t-122.5 -81t-155 -30zM447 129
q49 0 90.5 18.5t71 50t46 74t16.5 90.5v2q0 48 -17 90.5t-47 75t-71.5 51t-90.5 18.5q-50 0 -91 -18.5t-70.5 -50t-46 -74t-16.5 -90.5v-2q0 -48 16.5 -90.5t46.5 -75t71.5 -51t91.5 -18.5z" />
    <glyph glyph-name="Oacute" unicode="&#xd3;" horiz-adv-x="892" 
d="M508 957l132 -58l-140 -103h-116zM445 -12q-84 0 -154.5 29.5t-122 80t-80 118.5t-28.5 146v2q0 77 29 145.5t80.5 119.5t122.5 81t155 30t154.5 -29.5t122 -80t80 -118.5t28.5 -146v-2q0 -77 -29 -145.5t-80.5 -119.5t-122.5 -81t-155 -30zM447 129q49 0 90.5 18.5
t71 50t46 74t16.5 90.5v2q0 48 -17 90.5t-47 75t-71.5 51t-90.5 18.5q-50 0 -91 -18.5t-70.5 -50t-46 -74t-16.5 -90.5v-2q0 -48 16.5 -90.5t46.5 -75t71.5 -51t91.5 -18.5z" />
    <glyph glyph-name="Ocircumflex" unicode="&#xd4;" horiz-adv-x="892" 
d="M445 -12q-84 0 -154.5 29.5t-122 80t-80 118.5t-28.5 146v2q0 77 29 145.5t80.5 119.5t122.5 81t155 30t154.5 -29.5t122 -80t80 -118.5t28.5 -146v-2q0 -77 -29 -145.5t-80.5 -119.5t-122.5 -81t-155 -30zM447 129q49 0 90.5 18.5t71 50t46 74t16.5 90.5v2
q0 48 -17 90.5t-47 75t-71.5 51t-90.5 18.5q-50 0 -91 -18.5t-70.5 -50t-46 -74t-16.5 -90.5v-2q0 -48 16.5 -90.5t46.5 -75t71.5 -51t91.5 -18.5zM374 946h144l131 -150h-122l-82 58l-82 -58h-120z" />
    <glyph glyph-name="Otilde" unicode="&#xd5;" horiz-adv-x="892" 
d="M538 796q-26 0 -51 7.5t-48 16.5q-19 7 -34 11.5t-27 4.5q-24 0 -36.5 -12.5t-23.5 -38.5l-82 26q9 32 20 58t26 44t35 28t47 10q26 0 51 -7.5t48 -16.5q19 -7 34 -12t27 -5q24 0 36.5 13t23.5 38l81 -25q-17 -65 -45.5 -102.5t-81.5 -37.5zM445 -12q-84 0 -154.5 29.5
t-122 80t-80 118.5t-28.5 146v2q0 77 29 145.5t80.5 119.5t122.5 81t155 30t154.5 -29.5t122 -80t80 -118.5t28.5 -146v-2q0 -77 -29 -145.5t-80.5 -119.5t-122.5 -81t-155 -30zM447 129q49 0 90.5 18.5t71 50t46 74t16.5 90.5v2q0 48 -17 90.5t-47 75t-71.5 51t-90.5 18.5
q-50 0 -91 -18.5t-70.5 -50t-46 -74t-16.5 -90.5v-2q0 -48 16.5 -90.5t46.5 -75t71.5 -51t91.5 -18.5z" />
    <glyph glyph-name="Odieresis" unicode="&#xd6;" horiz-adv-x="892" 
d="M484 925h148v-129h-148v129zM260 925h148v-129h-148v129zM445 -12q-84 0 -154.5 29.5t-122 80t-80 118.5t-28.5 146v2q0 77 29 145.5t80.5 119.5t122.5 81t155 30t154.5 -29.5t122 -80t80 -118.5t28.5 -146v-2q0 -77 -29 -145.5t-80.5 -119.5t-122.5 -81t-155 -30z
M447 129q49 0 90.5 18.5t71 50t46 74t16.5 90.5v2q0 48 -17 90.5t-47 75t-71.5 51t-90.5 18.5q-50 0 -91 -18.5t-70.5 -50t-46 -74t-16.5 -90.5v-2q0 -48 16.5 -90.5t46.5 -75t71.5 -51t91.5 -18.5z" />
    <glyph glyph-name="Oslash" unicode="&#xd8;" horiz-adv-x="892" 
d="M840 733l-102 -118q45 -50 69.5 -113.5t24.5 -135.5v-2q0 -77 -29 -145.5t-80.5 -119.5t-122.5 -81t-155 -30q-58 0 -109 13.5t-95 39.5l-42 -46h-147l102 118q-45 50 -69.5 113.5t-24.5 135.5v2q0 77 29 145.5t80.5 119.5t122.5 81t155 30q57 0 108 -14t95 -40l43 47
h147zM218 364q0 -38 10 -72t29 -63l298 345q-50 28 -110 28q-50 0 -91.5 -18.5t-71.5 -51t-47 -75.5t-17 -91v-2zM447 126q50 0 91.5 18.5t71.5 51t47 75.5t17 91v2q0 75 -39 134l-298 -344q50 -28 110 -28z" />
    <glyph glyph-name="Ugrave" unicode="&#xd9;" horiz-adv-x="794" 
d="M343 786l-140 103l132 58l124 -161h-116zM395 -11q-73 0 -131 20.5t-98.5 61t-62.5 100.5t-22 140v417h154v-412q0 -92 43 -139t119 -47t119.5 45t43.5 135v418h153v-411q0 -83 -22.5 -144.5t-63.5 -102t-100 -61t-132 -20.5z" />
    <glyph glyph-name="Uacute" unicode="&#xda;" horiz-adv-x="794" 
d="M460 947l132 -58l-140 -103h-116zM395 -11q-73 0 -131 20.5t-98.5 61t-62.5 100.5t-22 140v417h154v-412q0 -92 43 -139t119 -47t119.5 45t43.5 135v418h153v-411q0 -83 -22.5 -144.5t-63.5 -102t-100 -61t-132 -20.5z" />
    <glyph glyph-name="Ucircumflex" unicode="&#xdb;" horiz-adv-x="794" 
d="M395 -11q-73 0 -131 20.5t-98.5 61t-62.5 100.5t-22 140v417h154v-412q0 -92 43 -139t119 -47t119.5 45t43.5 135v418h153v-411q0 -83 -22.5 -144.5t-63.5 -102t-100 -61t-132 -20.5zM325 936h144l131 -150h-122l-82 58l-82 -58h-120z" />
    <glyph glyph-name="Udieresis" unicode="&#xdc;" horiz-adv-x="794" 
d="M435 915h148v-129h-148v129zM211 915h148v-129h-148v129zM395 -11q-73 0 -131 20.5t-98.5 61t-62.5 100.5t-22 140v417h154v-412q0 -92 43 -139t119 -47t119.5 45t43.5 135v418h153v-411q0 -83 -22.5 -144.5t-63.5 -102t-100 -61t-132 -20.5z" />
    <glyph glyph-name="Yacute" unicode="&#xdd;" horiz-adv-x="753" 
d="M299 287l-281 441h180l179 -298l183 298h175l-282 -438v-290h-154v287zM439 947l132 -58l-140 -103h-116z" />
    <glyph glyph-name="Thorn" unicode="&#xde;" horiz-adv-x="708" 
d="M93 728h153v-108h142q65 0 116.5 -18t87.5 -51t55 -79t19 -102v-2q0 -63 -23 -110.5t-63 -79.5t-93 -48t-114 -16h-127v-114h-153v728zM378 251q63 0 98 32.5t35 81.5v2q0 57 -36.5 85.5t-99.5 28.5h-129v-230h132z" />
    <glyph glyph-name="germandbls" unicode="&#xdf;" horiz-adv-x="653" 
d="M314 112q67 3 103 28t36 71v2q0 45 -39.5 71t-99.5 34v100q41 24 69 55.5t28 76.5v2q0 41 -23.5 63.5t-64.5 22.5q-42 0 -69 -29t-27 -80v-529h-151v523q0 57 18 102.5t51 76.5t80 47.5t105 16.5q55 0 98.5 -15.5t72.5 -42.5t44.5 -63.5t15.5 -78.5v-2q0 -34 -8 -60
t-21.5 -46t-31.5 -36t-38 -29q27 -11 52.5 -27t45 -38.5t31.5 -52t12 -67.5v-2q0 -51 -20.5 -91t-58 -67t-91 -40t-119.5 -10v114z" />
    <glyph glyph-name="agrave" unicode="&#xe0;" horiz-adv-x="623" 
d="M235 -11q-39 0 -74.5 11t-61.5 33t-41.5 54t-15.5 73v2q0 45 16.5 78.5t46.5 55.5t71 32.5t91 10.5q44 0 76.5 -6t62.5 -16v10q0 51 -31 78t-92 27q-45 0 -81 -8.5t-74 -22.5l-38 116q46 20 95.5 32.5t119.5 12.5q64 0 110.5 -16.5t76.5 -45.5q31 -31 45.5 -75.5
t14.5 -100.5v-324h-147v62q-29 -32 -70 -52.5t-100 -20.5zM280 95q57 0 92.5 28.5t35.5 73.5v30q-21 9 -48 15t-58 6q-53 0 -83 -21t-30 -59v-2q0 -34 25.5 -52.5t65.5 -18.5zM127 743l132 57l114 -181h-112z" />
    <glyph glyph-name="aacute" unicode="&#xe1;" horiz-adv-x="623" 
d="M235 -11q-39 0 -74.5 11t-61.5 33t-41.5 54t-15.5 73v2q0 45 16.5 78.5t46.5 55.5t71 32.5t91 10.5q44 0 76.5 -6t62.5 -16v10q0 51 -31 78t-92 27q-45 0 -81 -8.5t-74 -22.5l-38 116q46 20 95.5 32.5t119.5 12.5q64 0 110.5 -16.5t76.5 -45.5q31 -31 45.5 -75.5
t14.5 -100.5v-324h-147v62q-29 -32 -70 -52.5t-100 -20.5zM280 95q57 0 92.5 28.5t35.5 73.5v30q-21 9 -48 15t-58 6q-53 0 -83 -21t-30 -59v-2q0 -34 25.5 -52.5t65.5 -18.5zM367 800l132 -57l-134 -124h-112z" />
    <glyph glyph-name="acircumflex" unicode="&#xe2;" horiz-adv-x="623" 
d="M235 -11q-39 0 -74.5 11t-61.5 33t-41.5 54t-15.5 73v2q0 45 16.5 78.5t46.5 55.5t71 32.5t91 10.5q44 0 76.5 -6t62.5 -16v10q0 51 -31 78t-92 27q-45 0 -81 -8.5t-74 -22.5l-38 116q46 20 95.5 32.5t119.5 12.5q64 0 110.5 -16.5t76.5 -45.5q31 -31 45.5 -75.5
t14.5 -100.5v-324h-147v62q-29 -32 -70 -52.5t-100 -20.5zM280 95q57 0 92.5 28.5t35.5 73.5v30q-21 9 -48 15t-58 6q-53 0 -83 -21t-30 -59v-2q0 -34 25.5 -52.5t65.5 -18.5zM241 780h144l126 -161h-117l-82 69l-82 -69h-115z" />
    <glyph glyph-name="atilde" unicode="&#xe3;" horiz-adv-x="623" 
d="M235 -11q-39 0 -74.5 11t-61.5 33t-41.5 54t-15.5 73v2q0 45 16.5 78.5t46.5 55.5t71 32.5t91 10.5q44 0 76.5 -6t62.5 -16v10q0 51 -31 78t-92 27q-45 0 -81 -8.5t-74 -22.5l-38 116q46 20 95.5 32.5t119.5 12.5q64 0 110.5 -16.5t76.5 -45.5q31 -31 45.5 -75.5
t14.5 -100.5v-324h-147v62q-29 -32 -70 -52.5t-100 -20.5zM280 95q57 0 92.5 28.5t35.5 73.5v30q-21 9 -48 15t-58 6q-53 0 -83 -21t-30 -59v-2q0 -34 25.5 -52.5t65.5 -18.5zM402 619q-26 0 -49.5 7.5t-43.5 15.5q-18 7 -33.5 12t-27.5 5q-24 0 -36 -12.5t-23 -38.5l-82 25
q18 65 46 103t81 38q26 0 49.5 -7.5t43.5 -15.5q18 -7 33.5 -12.5t27.5 -5.5q24 0 36 13t23 39l82 -25q-18 -65 -46 -103t-81 -38z" />
    <glyph glyph-name="adieresis" unicode="&#xe4;" horiz-adv-x="623" 
d="M235 -11q-39 0 -74.5 11t-61.5 33t-41.5 54t-15.5 73v2q0 45 16.5 78.5t46.5 55.5t71 32.5t91 10.5q44 0 76.5 -6t62.5 -16v10q0 51 -31 78t-92 27q-45 0 -81 -8.5t-74 -22.5l-38 116q46 20 95.5 32.5t119.5 12.5q64 0 110.5 -16.5t76.5 -45.5q31 -31 45.5 -75.5
t14.5 -100.5v-324h-147v62q-29 -32 -70 -52.5t-100 -20.5zM280 95q57 0 92.5 28.5t35.5 73.5v30q-21 9 -48 15t-58 6q-53 0 -83 -21t-30 -59v-2q0 -34 25.5 -52.5t65.5 -18.5zM346 756h147v-137h-147v137zM133 756h147v-137h-147v137z" />
    <glyph glyph-name="aring" unicode="&#xe5;" horiz-adv-x="623" 
d="M235 -11q-39 0 -74.5 11t-61.5 33t-41.5 54t-15.5 73v2q0 45 16.5 78.5t46.5 55.5t71 32.5t91 10.5q44 0 76.5 -6t62.5 -16v10q0 51 -31 78t-92 27q-45 0 -81 -8.5t-74 -22.5l-38 116q46 20 95.5 32.5t119.5 12.5q64 0 110.5 -16.5t76.5 -45.5q31 -31 45.5 -75.5
t14.5 -100.5v-324h-147v62q-29 -32 -70 -52.5t-100 -20.5zM280 95q57 0 92.5 28.5t35.5 73.5v30q-21 9 -48 15t-58 6q-53 0 -83 -21t-30 -59v-2q0 -34 25.5 -52.5t65.5 -18.5zM313 617q-26 0 -48.5 9.5t-39.5 25.5t-27 38t-10 47t10 47t27 38.5t39.5 26t48.5 9.5t48.5 -9.5
t39.5 -26t27 -38.5t10 -47t-10 -47t-27 -38t-39.5 -25.5t-48.5 -9.5zM313 668q29 0 49 20.5t20 48.5q0 29 -20 49t-49 20t-49 -20t-20 -49q0 -28 20 -48.5t49 -20.5z" />
    <glyph glyph-name="ae" unicode="&#xe6;" horiz-adv-x="997" 
d="M252 -11q-45 0 -83 11.5t-66.5 33.5t-44.5 53.5t-16 72.5v2q0 45 16.5 78.5t46.5 55.5t71 32.5t91 10.5q43 0 75.5 -6t62.5 -16v10q0 51 -31 78t-91 27q-46 0 -81.5 -8.5t-73.5 -22.5l-38 116q46 21 95 33t119 12t116.5 -19t73.5 -55q35 37 81.5 57.5t104.5 20.5
q67 0 117 -25t83 -66.5t49.5 -96t16.5 -113.5q0 -9 -0.5 -19t-1.5 -21h-391q11 -57 48.5 -86t92.5 -29q41 0 73 13.5t65 44.5l87 -77q-39 -48 -95.5 -75.5t-131.5 -27.5q-65 0 -119.5 22t-93.5 64q-48 -36 -104 -60.5t-123 -24.5zM798 320q-7 55 -38 89.5t-84 34.5
q-51 0 -83.5 -33.5t-41.5 -90.5h247zM279 97q38 0 75 13.5t72 42.5q-16 36 -20 75q-21 8 -48 14t-56 6q-53 0 -83 -21t-30 -59v-2q0 -32 26.5 -50.5t63.5 -18.5z" />
    <glyph glyph-name="ae" unicode="&#x1fd;" horiz-adv-x="997" 
d="M252 -11q-45 0 -83 11.5t-66.5 33.5t-44.5 53.5t-16 72.5v2q0 45 16.5 78.5t46.5 55.5t71 32.5t91 10.5q43 0 75.5 -6t62.5 -16v10q0 51 -31 78t-91 27q-46 0 -81.5 -8.5t-73.5 -22.5l-38 116q46 21 95 33t119 12t116.5 -19t73.5 -55q35 37 81.5 57.5t104.5 20.5
q67 0 117 -25t83 -66.5t49.5 -96t16.5 -113.5q0 -9 -0.5 -19t-1.5 -21h-391q11 -57 48.5 -86t92.5 -29q41 0 73 13.5t65 44.5l87 -77q-39 -48 -95.5 -75.5t-131.5 -27.5q-65 0 -119.5 22t-93.5 64q-48 -36 -104 -60.5t-123 -24.5zM798 320q-7 55 -38 89.5t-84 34.5
q-51 0 -83.5 -33.5t-41.5 -90.5h247zM279 97q38 0 75 13.5t72 42.5q-16 36 -20 75q-21 8 -48 14t-56 6q-53 0 -83 -21t-30 -59v-2q0 -32 26.5 -50.5t63.5 -18.5z" />
    <glyph glyph-name="ccedilla" unicode="&#xe7;" horiz-adv-x="602" 
d="M167 -125l86 125q-46 13 -83.5 39t-64.5 62t-41.5 80.5t-14.5 93.5v2q0 59 21.5 111.5t60 92t92 62.5t117.5 23q78 0 130.5 -25t91.5 -69l-94 -100q-27 29 -56.5 46t-72.5 17q-31 0 -56.5 -12.5t-44 -33.5t-29 -49.5t-10.5 -60.5v-2q0 -33 10.5 -62t29.5 -50.5t46 -34
t60 -12.5q41 0 71.5 16.5t59.5 44.5l89 -89q-38 -42 -84 -69t-118 -32l-68 -167z" />
    <glyph glyph-name="egrave" unicode="&#xe8;" horiz-adv-x="644" 
d="M338 -12q-62 0 -115 21t-91.5 59t-60.5 90.5t-22 116.5v2q0 60 20 112.5t56.5 91.5t87 62t110.5 23q69 0 120 -25t84 -66.5t49.5 -96t16.5 -113.5q0 -9 -0.5 -19t-1.5 -21h-391q11 -57 48 -86t92 -29q42 0 73.5 13.5t64.5 44.5l87 -77q-39 -48 -95 -75.5t-132 -27.5z
M445 320q-8 55 -38.5 89.5t-83.5 34.5q-51 0 -83.5 -33.5t-41.5 -90.5h247zM135 743l132 57l114 -181h-112z" />
    <glyph glyph-name="eacute" unicode="&#xe9;" horiz-adv-x="644" 
d="M375 800l132 -57l-134 -124h-112zM338 -12q-62 0 -115 21t-91.5 59t-60.5 90.5t-22 116.5v2q0 60 20 112.5t56.5 91.5t87 62t110.5 23q69 0 120 -25t84 -66.5t49.5 -96t16.5 -113.5q0 -9 -0.5 -19t-1.5 -21h-391q11 -57 48 -86t92 -29q42 0 73.5 13.5t64.5 44.5l87 -77
q-39 -48 -95 -75.5t-132 -27.5zM445 320q-8 55 -38.5 89.5t-83.5 34.5q-51 0 -83.5 -33.5t-41.5 -90.5h247z" />
    <glyph glyph-name="ecircumflex" unicode="&#xea;" horiz-adv-x="644" 
d="M249 780h144l126 -161h-117l-82 69l-82 -69h-115zM338 -12q-62 0 -115 21t-91.5 59t-60.5 90.5t-22 116.5v2q0 60 20 112.5t56.5 91.5t87 62t110.5 23q69 0 120 -25t84 -66.5t49.5 -96t16.5 -113.5q0 -9 -0.5 -19t-1.5 -21h-391q11 -57 48 -86t92 -29q42 0 73.5 13.5
t64.5 44.5l87 -77q-39 -48 -95 -75.5t-132 -27.5zM445 320q-8 55 -38.5 89.5t-83.5 34.5q-51 0 -83.5 -33.5t-41.5 -90.5h247z" />
    <glyph glyph-name="edieresis" unicode="&#xeb;" horiz-adv-x="644" 
d="M354 756h147v-137h-147v137zM141 756h147v-137h-147v137zM338 -12q-62 0 -115 21t-91.5 59t-60.5 90.5t-22 116.5v2q0 60 20 112.5t56.5 91.5t87 62t110.5 23q69 0 120 -25t84 -66.5t49.5 -96t16.5 -113.5q0 -9 -0.5 -19t-1.5 -21h-391q11 -57 48 -86t92 -29
q42 0 73.5 13.5t64.5 44.5l87 -77q-39 -48 -95 -75.5t-132 -27.5zM445 320q-8 55 -38.5 89.5t-83.5 34.5q-51 0 -83.5 -33.5t-41.5 -90.5h247z" />
    <glyph glyph-name="igrave" unicode="&#xec;" horiz-adv-x="319" 
d="M84 556h151v-556h-151v556zM-26 743l132 57l114 -181h-112z" />
    <glyph glyph-name="iacute" unicode="&#xed;" horiz-adv-x="319" 
d="M215 800l132 -57l-134 -124h-112zM84 556h151v-556h-151v556z" />
    <glyph glyph-name="icircumflex" unicode="&#xee;" horiz-adv-x="319" 
d="M88 780h144l126 -161h-117l-82 69l-82 -69h-115zM84 556h151v-556h-151v556z" />
    <glyph glyph-name="idieresis" unicode="&#xef;" horiz-adv-x="319" 
d="M193 756h147v-137h-147v137zM-20 756h147v-137h-147v137zM84 556h151v-556h-151v556z" />
    <glyph glyph-name="eth" unicode="&#xf0;" horiz-adv-x="698" 
d="M482 661q35 -37 65.5 -77.5t52.5 -85.5t34.5 -93.5t12.5 -100.5v-2q0 -64 -20.5 -121t-59 -100t-94 -68t-126.5 -25q-64 0 -118.5 22.5t-94.5 62t-62.5 93.5t-22.5 117v2q0 57 19.5 106t53 85t78.5 57t97 21q41 0 71 -10t61 -30q-17 26 -40 53.5t-51 55.5l-129 -34
l-27 81l81 21q-23 18 -45.5 35t-45.5 33h202l36 -30l124 32l26 -79zM350 118q34 0 61.5 12.5t47 33.5t29.5 49t10 60v2q0 32 -11 60.5t-31 49.5t-47.5 33.5t-61.5 12.5q-35 0 -62.5 -12t-46.5 -33t-29 -49t-10 -60v-2q0 -32 11 -60.5t31 -50t47.5 -34t61.5 -12.5z" />
    <glyph glyph-name="ntilde" unicode="&#xf1;" horiz-adv-x="655" 
d="M76 556h152v-80q13 18 29.5 34t36.5 28.5t44.5 20t54.5 7.5q91 0 141 -55t50 -152v-359h-152v311q0 58 -26 88t-74 30t-76 -30t-28 -88v-311h-152v556zM418 619q-26 0 -49.5 7.5t-43.5 15.5q-18 7 -33.5 12t-27.5 5q-24 0 -36 -12.5t-23 -38.5l-82 25q18 65 46 103t81 38
q26 0 49.5 -7.5t43.5 -15.5q18 -7 33.5 -12.5t27.5 -5.5q24 0 36 13t23 39l82 -25q-18 -65 -46 -103t-81 -38z" />
    <glyph glyph-name="ograve" unicode="&#xf2;" horiz-adv-x="697" 
d="M347 -12q-64 0 -118.5 22.5t-94.5 61t-62.5 91t-22.5 112.5v2q0 60 22.5 112.5t63 91.5t95.5 62t120 23q64 0 118.5 -22.5t94.5 -61.5t62.5 -91t22.5 -112v-2q0 -60 -22.5 -112.5t-63 -92t-95.5 -62t-120 -22.5zM350 118q34 0 61.5 12.5t47 34t29.5 50t10 60.5v2
q0 32 -11 60.5t-31 50.5t-47.5 34.5t-61.5 12.5q-35 0 -62 -12.5t-46.5 -33.5t-29.5 -49.5t-10 -60.5v-2q0 -32 11 -61t31 -50.5t47.5 -34.5t61.5 -13zM162 743l132 57l114 -181h-112z" />
    <glyph glyph-name="oacute" unicode="&#xf3;" horiz-adv-x="697" 
d="M403 800l132 -57l-134 -124h-112zM347 -12q-64 0 -118.5 22.5t-94.5 61t-62.5 91t-22.5 112.5v2q0 60 22.5 112.5t63 91.5t95.5 62t120 23q64 0 118.5 -22.5t94.5 -61.5t62.5 -91t22.5 -112v-2q0 -60 -22.5 -112.5t-63 -92t-95.5 -62t-120 -22.5zM350 118q34 0 61.5 12.5
t47 34t29.5 50t10 60.5v2q0 32 -11 60.5t-31 50.5t-47.5 34.5t-61.5 12.5q-35 0 -62 -12.5t-46.5 -33.5t-29.5 -49.5t-10 -60.5v-2q0 -32 11 -61t31 -50.5t47.5 -34.5t61.5 -13z" />
    <glyph glyph-name="ocircumflex" unicode="&#xf4;" horiz-adv-x="697" 
d="M277 780h144l126 -161h-117l-82 69l-82 -69h-115zM347 -12q-64 0 -118.5 22.5t-94.5 61t-62.5 91t-22.5 112.5v2q0 60 22.5 112.5t63 91.5t95.5 62t120 23q64 0 118.5 -22.5t94.5 -61.5t62.5 -91t22.5 -112v-2q0 -60 -22.5 -112.5t-63 -92t-95.5 -62t-120 -22.5zM350 118
q34 0 61.5 12.5t47 34t29.5 50t10 60.5v2q0 32 -11 60.5t-31 50.5t-47.5 34.5t-61.5 12.5q-35 0 -62 -12.5t-46.5 -33.5t-29.5 -49.5t-10 -60.5v-2q0 -32 11 -61t31 -50.5t47.5 -34.5t61.5 -13z" />
    <glyph glyph-name="otilde" unicode="&#xf5;" horiz-adv-x="697" 
d="M347 -12q-64 0 -118.5 22.5t-94.5 61t-62.5 91t-22.5 112.5v2q0 60 22.5 112.5t63 91.5t95.5 62t120 23q64 0 118.5 -22.5t94.5 -61.5t62.5 -91t22.5 -112v-2q0 -60 -22.5 -112.5t-63 -92t-95.5 -62t-120 -22.5zM350 118q34 0 61.5 12.5t47 34t29.5 50t10 60.5v2
q0 32 -11 60.5t-31 50.5t-47.5 34.5t-61.5 12.5q-35 0 -62 -12.5t-46.5 -33.5t-29.5 -49.5t-10 -60.5v-2q0 -32 11 -61t31 -50.5t47.5 -34.5t61.5 -13zM438 619q-26 0 -49.5 7.5t-43.5 15.5q-18 7 -33.5 12t-27.5 5q-24 0 -36 -12.5t-23 -38.5l-82 25q18 65 46 103t81 38
q26 0 49.5 -7.5t43.5 -15.5q18 -7 33.5 -12.5t27.5 -5.5q24 0 36 13t23 39l82 -25q-18 -65 -46 -103t-81 -38z" />
    <glyph glyph-name="odieresis" unicode="&#xf6;" horiz-adv-x="697" 
d="M382 756h147v-137h-147v137zM169 756h147v-137h-147v137zM347 -12q-64 0 -118.5 22.5t-94.5 61t-62.5 91t-22.5 112.5v2q0 60 22.5 112.5t63 91.5t95.5 62t120 23q64 0 118.5 -22.5t94.5 -61.5t62.5 -91t22.5 -112v-2q0 -60 -22.5 -112.5t-63 -92t-95.5 -62t-120 -22.5z
M350 118q34 0 61.5 12.5t47 34t29.5 50t10 60.5v2q0 32 -11 60.5t-31 50.5t-47.5 34.5t-61.5 12.5q-35 0 -62 -12.5t-46.5 -33.5t-29.5 -49.5t-10 -60.5v-2q0 -32 11 -61t31 -50.5t47.5 -34.5t61.5 -13z" />
    <glyph glyph-name="oslash" unicode="&#xf8;" horiz-adv-x="697" 
d="M664 561l-85 -97q32 -38 50.5 -84.5t18.5 -100.5v-2q0 -60 -22.5 -112.5t-63 -92t-95.5 -62t-120 -22.5q-85 0 -151 37l-29 -30h-134l83 95q-32 37 -49.5 84t-17.5 101v2q0 60 22.5 112.5t63 91.5t95.5 62t120 23q84 0 150 -37l30 32h134zM350 114q36 0 64 13t47.5 35
t30 51t10.5 62v2q0 41 -19 79l-198 -228q30 -14 65 -14zM195 277q0 -43 18 -79l199 227q-31 14 -65 14q-36 0 -64 -13t-47.5 -34.5t-30 -50.5t-10.5 -62v-2z" />
    <glyph glyph-name="ugrave" unicode="&#xf9;" horiz-adv-x="655" 
d="M262 -11q-91 0 -140.5 55.5t-49.5 152.5v359h151v-311q0 -58 26 -88t74 -30t76 30t28 88v311h152v-556h-152v80q-14 -18 -30 -34.5t-36 -29t-44.5 -20t-54.5 -7.5zM139 743l132 57l114 -181h-112z" />
    <glyph glyph-name="uacute" unicode="&#xfa;" horiz-adv-x="655" 
d="M379 800l132 -57l-134 -124h-112zM262 -11q-91 0 -140.5 55.5t-49.5 152.5v359h151v-311q0 -58 26 -88t74 -30t76 30t28 88v311h152v-556h-152v80q-14 -18 -30 -34.5t-36 -29t-44.5 -20t-54.5 -7.5z" />
    <glyph glyph-name="ucircumflex" unicode="&#xfb;" horiz-adv-x="655" 
d="M253 780h144l126 -161h-117l-82 69l-82 -69h-115zM262 -11q-91 0 -140.5 55.5t-49.5 152.5v359h151v-311q0 -58 26 -88t74 -30t76 30t28 88v311h152v-556h-152v80q-14 -18 -30 -34.5t-36 -29t-44.5 -20t-54.5 -7.5z" />
    <glyph glyph-name="udieresis" unicode="&#xfc;" horiz-adv-x="655" 
d="M358 756h147v-137h-147v137zM145 756h147v-137h-147v137zM262 -11q-91 0 -140.5 55.5t-49.5 152.5v359h151v-311q0 -58 26 -88t74 -30t76 30t28 88v311h152v-556h-152v80q-14 -18 -30 -34.5t-36 -29t-44.5 -20t-54.5 -7.5z" />
    <glyph glyph-name="yacute" unicode="&#xfd;" horiz-adv-x="631" 
d="M445 556h158l-215 -570q-16 -42 -33.5 -72t-39 -48.5t-48.5 -27t-62 -8.5q-42 0 -75 10.5t-63 27.5l51 110q16 -9 34 -15t35 -6q22 0 35 8.5t25 32.5l-221 558h161l132 -385zM369 800l132 -57l-134 -124h-112z" />
    <glyph glyph-name="thorn" unicode="&#xfe;" horiz-adv-x="709" 
d="M76 759h152v-286q29 40 71 66.5t105 26.5q49 0 94.5 -19t81 -55.5t57 -90t21.5 -122.5v-2q0 -69 -21 -123t-56.5 -90.5t-81.5 -55.5t-95 -19q-64 0 -105.5 25.5t-70.5 60.5v-241h-152v925zM366 119q28 0 53.5 11t45 31.5t30.5 50t11 65.5v2q0 36 -11 65t-30.5 49.5
t-45 32t-53.5 11.5q-29 0 -54 -11.5t-44.5 -32t-30.5 -49.5t-11 -65v-2q0 -36 11 -65t30.5 -49.5t44.5 -32t54 -11.5z" />
    <glyph glyph-name="ydieresis" unicode="&#xff;" horiz-adv-x="631" 
d="M445 556h158l-215 -570q-16 -42 -33.5 -72t-39 -48.5t-48.5 -27t-62 -8.5q-42 0 -75 10.5t-63 27.5l51 110q16 -9 34 -15t35 -6q22 0 35 8.5t25 32.5l-221 558h161l132 -385zM348 756h147v-137h-147v137zM135 756h147v-137h-147v137z" />
    <glyph glyph-name="dotlessi" unicode="&#x131;" horiz-adv-x="319" 
d="M84 556h151v-556h-151v556z" />
    <glyph glyph-name="Lslash" unicode="&#x141;" horiz-adv-x="683" 
d="M276 323v-183h368v-140h-520v256l-78 -34v144l78 34v328h152v-261l157 70v-144z" />
    <glyph glyph-name="lslash" unicode="&#x142;" horiz-adv-x="381" 
d="M265 354v-354h-149v279l-79 -39v143l79 39v337h149v-262l79 39v-143z" />
    <glyph glyph-name="OE" unicode="&#x152;" horiz-adv-x="1131" 
d="M447 0q-86 0 -157 27.5t-122 76.5t-79.5 115t-28.5 143v2q0 77 28.5 143.5t79.5 115.5t122 77t157 28h619v-137h-369v-156h322v-137h-322v-161h374v-137h-624zM544 139v450h-97q-51 0 -92.5 -16.5t-71 -45.5t-46 -70.5t-16.5 -90.5v-2q0 -50 16.5 -91t46 -71t71 -46.5
t92.5 -16.5h97z" />
    <glyph glyph-name="oe" unicode="&#x153;" horiz-adv-x="1084" 
d="M339 -12q-60 0 -112.5 22.5t-92 61t-62.5 91t-23 112.5v2q0 60 23 112.5t63 91.5t94 62t116 23q66 0 120 -25.5t92 -70.5q36 45 88.5 70.5t117.5 25.5q69 0 120 -25t84 -66.5t49.5 -96t16.5 -113.5q0 -9 -0.5 -19t-1.5 -21h-391q11 -57 48 -86t92 -29q42 0 73.5 13.5
t64.5 44.5l87 -77q-39 -48 -95 -75.5t-132 -27.5q-69 0 -126.5 26t-96.5 72q-38 -45 -93.5 -71.5t-122.5 -26.5zM885 320q-8 55 -38.5 89.5t-83.5 34.5q-51 0 -83.5 -33.5t-41.5 -90.5h247zM345 118q33 0 60 12.5t45.5 34t28.5 50t10 60.5v2q0 32 -10.5 60.5t-30 50.5
t-46.5 34.5t-59 12.5q-34 0 -60.5 -12.5t-45 -34t-28.5 -50t-10 -59.5v-2q0 -32 10.5 -61t30 -50.5t46 -34.5t59.5 -13z" />
    <glyph glyph-name="Scaron" unicode="&#x160;" horiz-adv-x="674" 
d="M351 -10q-84 0 -163 28.5t-145 87.5l91 109q50 -42 103 -66t117 -24q51 0 80.5 20t29.5 54v2q0 16 -6 28.5t-22.5 24t-46 21.5t-75.5 22q-56 14 -100.5 30t-76 41t-48.5 61t-17 90v2q0 49 19 89t52.5 68.5t80 44t102.5 15.5q80 0 146.5 -23.5t122.5 -68.5l-81 -116
q-48 35 -95.5 54t-95.5 19t-73 -20t-25 -48v-2q0 -19 7 -32t25 -24t49 -21.5t79 -22.5q56 -14 99 -32t72.5 -43.5t45 -60t15.5 -81.5v-2q0 -54 -19.5 -95.5t-55 -70t-84.5 -43.5t-107 -15zM413 796h-144l-131 150h122l82 -58l82 58h120z" />
    <glyph glyph-name="scaron" unicode="&#x161;" horiz-adv-x="530" 
d="M340 619h-144l-126 161h117l82 -69l82 69h115zM270 -10q-59 0 -121 20t-117 63l66 101q45 -33 91 -50t85 -17q36 0 53.5 12.5t17.5 32.5v2q0 13 -9.5 22.5t-25.5 17t-37.5 14t-44.5 13.5q-30 9 -60 21t-54 30.5t-39 46.5t-15 68v2q0 42 16 74.5t43.5 55t64.5 34t79 11.5
q53 0 107 -17t99 -47l-58 -105q-42 24 -81 38t-71 14q-30 0 -46 -12t-16 -30v-2q0 -12 9.5 -21.5t25.5 -17.5t37 -15t44 -15q29 -9 59 -21.5t54.5 -31.5t40 -46t15.5 -65v-2q0 -46 -16.5 -79.5t-45 -55.5t-67 -32.5t-83.5 -10.5z" />
    <glyph glyph-name="Ydieresis" unicode="&#x178;" horiz-adv-x="753" 
d="M299 287l-281 441h180l179 -298l183 298h175l-282 -438v-290h-154v287zM414 915h148v-129h-148v129zM190 915h148v-129h-148v129z" />
    <glyph glyph-name="Zcaron" unicode="&#x17d;" horiz-adv-x="743" 
d="M450 786h-144l-131 150h122l82 -58l82 58h120zM70 116l406 477h-393v135h591v-116l-406 -477h406v-135h-604v116z" />
    <glyph glyph-name="zcaron" unicode="&#x17e;" horiz-adv-x="593" 
d="M370 619h-144l-126 161h117l82 -69l82 69h115zM56 106l294 327h-284v123h474v-107l-295 -326h295v-123h-484v106z" />
    <glyph glyph-name="circumflex" unicode="&#x2c6;" 
d="M192 780h144l126 -161h-117l-82 69l-82 -69h-115z" />
    <glyph glyph-name="caron" unicode="&#x2c7;" 
d="M336 619h-144l-126 161h117l82 -69l82 69h115z" />
    <glyph glyph-name="breve" unicode="&#x2d8;" 
d="M264 617q-81 0 -133 42t-59 120h102q10 -28 30.5 -45.5t59.5 -17.5t59.5 17.5t30.5 45.5h102q-7 -78 -59 -120t-133 -42z" />
    <glyph glyph-name="dotaccent" unicode="&#x2d9;" 
d="M188 756h152v-137h-152v137z" />
    <glyph glyph-name="ring" unicode="&#x2da;" 
d="M264 617q-26 0 -48.5 9.5t-39.5 25.5t-27 38t-10 47t10 47t27 38.5t39.5 26t48.5 9.5t48.5 -9.5t39.5 -26t27 -38.5t10 -47t-10 -47t-27 -38t-39.5 -25.5t-48.5 -9.5zM264 668q29 0 49 20.5t20 48.5q0 29 -20 49t-49 20t-49 -20t-20 -49q0 -28 20 -48.5t49 -20.5z" />
    <glyph glyph-name="ogonek" unicode="&#x2db;" 
d="M372 -171q-12 -2 -23 -2h-21q-68 0 -103.5 25.5t-35.5 63.5q0 26 12.5 48.5t33.5 46.5l101 -1q-20 -21 -28.5 -38t-8.5 -32q0 -23 19 -33.5t54 -9.5v-68z" />
    <glyph glyph-name="tilde" unicode="&#x2dc;" 
d="M348 619q-26 0 -49.5 7.5t-43.5 15.5q-18 7 -33.5 12t-27.5 5q-24 0 -36 -12.5t-23 -38.5l-82 25q18 65 46 103t81 38q26 0 49.5 -7.5t43.5 -15.5q18 -7 33.5 -12.5t27.5 -5.5q24 0 36 13t23 39l82 -25q-18 -65 -46 -103t-81 -38z" />
    <glyph glyph-name="hungarumlaut" unicode="&#x2dd;" 
d="M356 800l129 -57l-135 -124h-108zM165 800l129 -57l-134 -124h-107z" />
    <glyph glyph-name="endash" unicode="&#x2013;" horiz-adv-x="557" 
d="M57 393h443v-142h-443v142z" />
    <glyph glyph-name="emdash" unicode="&#x2014;" horiz-adv-x="942" 
d="M57 393h828v-142h-828v142z" />
    <glyph glyph-name="quoteleft" unicode="&#x2018;" horiz-adv-x="302" 
d="M65 543q0 100 47.5 144t138.5 46l13 -63q-53 -6 -78 -32t-21 -70h62v-162h-162v137z" />
    <glyph glyph-name="quoteright" unicode="&#x2019;" horiz-adv-x="302" 
d="M38 464q107 14 99 102h-62v162h162v-137q0 -100 -47.5 -143.5t-138.5 -46.5z" />
    <glyph glyph-name="quotesinglbase" unicode="&#x201a;" horiz-adv-x="302" 
d="M33 -102q53 6 78 32t21 70h-62v162h162v-137q0 -100 -47.5 -144t-138.5 -46z" />
    <glyph glyph-name="quotedblleft" unicode="&#x201c;" horiz-adv-x="561" 
d="M324 543q0 100 47.5 144t138.5 46l14 -63q-54 -6 -79 -32t-21 -70h63v-162h-163v137zM65 543q0 100 47.5 144t138.5 46l13 -63q-53 -6 -78 -32t-21 -70h62v-162h-162v137z" />
    <glyph glyph-name="quotedblright" unicode="&#x201d;" horiz-adv-x="561" 
d="M297 464q108 14 100 102h-63v162h163v-137q0 -100 -47.5 -143.5t-138.5 -46.5zM38 464q107 14 99 102h-62v162h162v-137q0 -100 -47.5 -143.5t-138.5 -46.5z" />
    <glyph glyph-name="quotedblbase" unicode="&#x201e;" horiz-adv-x="561" 
d="M292 -102q53 6 78.5 32t21.5 70h-63v162h163v-137q0 -100 -47.5 -144t-138.5 -46zM33 -102q53 6 78 32t21 70h-62v162h162v-137q0 -100 -47.5 -144t-138.5 -46z" />
    <glyph glyph-name="bullet" unicode="&#x2022;" horiz-adv-x="526" 
d="M263 213q-32 0 -59.5 12t-48.5 32.5t-33 48t-12 59.5v2q0 32 12 59.5t33 48t48.5 32.5t59.5 12q31 0 59 -12t49 -32.5t33 -48t12 -59.5v-2q0 -32 -12 -59.5t-33 -48t-49 -32.5t-59 -12z" />
    <glyph glyph-name="ellipsis" unicode="&#x2026;" horiz-adv-x="872" 
d="M643 158h159v-158h-159v158zM357 158h158v-158h-158v158zM70 158h158v-158h-158v158z" />
    <glyph glyph-name="guilsinglleft" unicode="&#x2039;" horiz-adv-x="392" 
d="M47 274v8l184 230l106 -52l-126 -181l126 -181l-106 -54z" />
    <glyph glyph-name="guilsinglright" unicode="&#x203a;" horiz-adv-x="392" 
d="M55 96l126 181l-126 181l106 54l184 -230v-8l-184 -230z" />
    <glyph glyph-name="Euro" unicode="&#x20ac;" horiz-adv-x="757" 
d="M594 519q-30 42 -62.5 63.5t-80.5 21.5t-83 -26t-55 -73h199v-102h-222q-1 -10 -1 -19v-19v-1v-18q0 -9 1 -17h222v-102h-200q20 -49 57 -76.5t89 -26.5q47 0 78 22.5t66 65.5l110 -80q-23 -33 -49 -59.5t-56.5 -45t-67 -29t-81.5 -10.5q-59 0 -108.5 17t-88.5 48.5
t-67 75.5t-43 98h-95v102h78q-1 8 -1 17v17v1v19q0 10 1 20h-78v102h97q16 51 43.5 94.5t66 75t87 48.5t105.5 17q48 0 86 -10t69 -27.5t55 -42t45 -53.5z" />
    <glyph glyph-name="trademark" unicode="&#x2122;" horiz-adv-x="726" 
d="M362 728h75l86 -139l87 139h73v-320h-67v218l-91 -143h-6l-90 143v-218h-67v320zM127 665h-96v63h263v-63h-96v-257h-71v257z" />
    <glyph glyph-name="hcoslug" horiz-adv-x="694" 
d="M273 18q2 22 -19 22q-9 0 -14.5 -5.5t-5.5 -15.5q1 -20 21 -20q15 0 18 14h-7q-2 -7 -9 -7q-10 0 -10 12h26zM254 35q7 0 7 -12h-14q0 12 7 12zM195 78q-8 0 -8 16q0 15 8 15t8 -15q0 -16 -8 -16zM210 4q-8 0 -8 16q0 15 8 15t8 -15q0 -16 -8 -16zM210 -1q9 0 15 6t6 15
t-6 14.5t-15 5.5t-15 -5.5t-6 -14.5q0 -10 6 -15.5t15 -5.5zM546 4q-8 0 -8 16q0 15 8 15t8 -15q0 -16 -8 -16zM546 -1q9 0 15 6t6 15t-6 14.5t-15 5.5t-15 -5.5t-6 -14.5q0 -10 6 -15.5t15 -5.5zM125 74h30v7h-10v16h4q5 0 6 -8h7v23h-7q-1 -8 -6 -8h-4v18h12q5 0 7 -2.5
t4 -10.5h8v20h-51v-7h7v-41h-7v-7zM195 73q9 0 15 6t6 15t-6 14.5t-15 5.5t-15 -5.5t-6 -14.5q0 -10 6 -15.5t15 -5.5zM644 -100h-594v800h594v-800zM498 -1q22 0 24 23h-8q-2 -16 -14 -16q-16 0 -16 22t14 22q10 0 15 -16h8v22h-8l-1 -6q-7 7 -16 7q-11 0 -19 -8t-8 -22
q0 -28 29 -28zM372 80q-8 0 -8 13t8 13q7 0 7 -13t-7 -13zM276 0h23v7h-5v25h14v-25h-5v-7h23v7h-6v52l-10 -2q-4 2 -9 2q-8 0 -13.5 -4.5t-5.5 -14.5v-1h-7v-7h7v-25h-6v-7zM368 0h26v7h-8v16q4 9 7 9v-1q0 -6 6 -6q7 0 7 7q0 8 -8 8t-12 -11v10h-18v-7h6v-25h-6v-7z
M352 73h6l4 8q5 -8 14 -8t12.5 7t3.5 14q0 20 -15 20q-10 0 -13 -9v27h-18v-7h6v-52zM400 75q-7 0 -7 -7q0 -9 11 -9q12 0 18 16l13 31h5v7h-17v-7h5l-8 -20l-9 20h6v7h-25v-7h5q2 -5 6 -13l6 -11l4 -9q-2 -8 -8 -8q2 2 1 6t-6 4zM247 428q0 13 7.5 21t19.5 8q13 0 21 -10.5
t8 -27.5q0 -13 -5 -25t-13 -25q-17 17 -27.5 29.5t-10.5 29.5zM302 74h7l1 4q2 -2 5 -3.5t8 -1.5q14 0 14 13q0 6 -4 8.5t-8.5 3.5t-8 2t-3.5 4q0 4 5 4t10 -7h7v13h-6l-2 -5q-3 5 -11 5q-7 0 -10.5 -3.5t-3.5 -8.5q0 -6 3.5 -8.5t8 -4t8.5 -2.5t4 -4q0 -4 -5 -4q-6 0 -12 9
h-7v-14zM261 219q-23 0 -37.5 15.5t-14.5 38.5q0 24 16 40q14 -13 33.5 -34.5t40.5 -47.5q-15 -12 -38 -12zM274 122v-9h-7v-7h7v-20q0 -13 12 -13q11 0 14 13l-5 2q-1 -7 -5 -7t-4 5v20h13v7h-13v11zM428 306q7 -11 18 -18t25 -7q21 0 35.5 15.5t14.5 38.5t-14.5 37.5
t-35.5 14.5q-35 0 -60 -38q-2 20 -15.5 29t-33.5 8q9 15 9 34q0 13 -6 26.5t-18 24t-30 17t-41 6.5q-25 0 -45 -7t-34.5 -19t-22 -27.5t-7.5 -31.5q0 -22 7.5 -37t23.5 -32q-82 -28 -82 -91q0 -20 8.5 -37t23.5 -29.5t34.5 -19.5t42.5 -7q63 0 104 45q25 -26 43.5 -35.5
t41.5 -9.5q32 0 55 25t25 69l-7 2q-8 -13 -17.5 -21t-25.5 -8q-15 0 -29 9.5t-33 31.5q11 15 23 25t23 17zM219 74h22v7h-4v15q0 10 7 10q6 0 6 -7v-18h-4v-7h22v7h-6v19q0 14 -12 14q-9 0 -14 -11v10h-17v-7h6v-25h-6v-7zM446 33v-7h6q-2 -5 -6 -9q-3 3 -5.5 6t-6.5 7
q11 5 11 12q0 5 -3.5 8.5t-10.5 3.5q-8 0 -12.5 -4t-4.5 -10t6 -12q-13 -4 -13 -15q0 -14 18 -14q9 0 15 6q5 -6 12 -6q10 0 13 12l-5 1q-1 -5 -4 -5t-6 5q3 3 5 6t4 8h5v7h-18zM429 6q-10 0 -10 10q0 5 4 9q4 -4 7 -7.5t7 -8.5q-4 -3 -8 -3zM294 42q0 7 1.5 9.5t4.5 2.5
q2 0 3 -1q-1 -2 -1 -4q0 -5 6 -5v-5h-14v3zM425 43q0 5 5 5q6 0 6 -6t-5 -9q-6 6 -6 10zM312 342q30 20 42 34q17 -17 15 -36t-16 -44q-10 11 -19.5 22.5t-21.5 23.5zM366 18q2 22 -19 22q-8 0 -14 -6t-6 -15q0 -20 21 -20q14 0 18 14h-7q-1 -7 -9 -7q-10 0 -10 12h26z
M347 35q7 0 7 -12h-14q0 12 7 12zM124 0h29v7h-8v18h22v-18h-8v-7h29v7h-8v41h8v7h-29v-7h8v-16h-22v16h8v7h-29v-7h8v-41h-8v-7zM576 13q-7 0 -7 -7t7 -7t7 7t-7 7z" />
    <glyph glyph-name="acute.cap" 
d="M279 947l132 -58l-140 -103h-116z" />
    <glyph glyph-name="hungarumlaut.cap" 
d="M168 947l127 -58l-140 -103h-111zM362 947l127 -58l-139 -103h-112z" />
    <glyph glyph-name="caron.alt.cap" 
d="M223 828h110v-3l-61 -210h-60z" />
    <glyph glyph-name="grave.cap" 
d="M255 786l-140 103l132 58l124 -161h-116z" />
    <glyph glyph-name="circumflex.cap" 
d="M192 936h144l131 -150h-122l-82 58l-82 -58h-120z" />
    <glyph glyph-name="caron.cap" 
d="M336 786h-144l-131 150h122l82 -58l82 58h120z" />
    <glyph glyph-name="breve.cap" 
d="M264 784q-81 0 -134 39t-60 113h104q10 -25 30.5 -38.5t59.5 -13.5t59.5 13.5t30.5 38.5h104q-7 -74 -60 -113t-134 -39z" />
    <glyph glyph-name="tilde.cap" 
d="M351 786q-26 0 -51 7.5t-48 16.5q-19 7 -34 11.5t-27 4.5q-24 0 -36.5 -12.5t-23.5 -38.5l-82 26q9 32 20 58t26 44t35 28t47 10q26 0 51 -7.5t48 -16.5q19 -7 34 -12t27 -5q24 0 36.5 13t23.5 38l81 -25q-17 -65 -45.5 -102.5t-81.5 -37.5z" />
    <glyph glyph-name="macron.cap" 
d="M69 900h390v-108h-390v108z" />
    <glyph glyph-name="dieresis.cap" 
d="M302 915h148v-129h-148v129zM78 915h148v-129h-148v129z" />
    <glyph glyph-name="dotaccent.cap" 
d="M188 915h152v-129h-152v129z" />
    <glyph glyph-name="ring.cap" 
d="M264 784q-26 0 -49 8t-40.5 23t-28 36t-10.5 46t10.5 46t28 36t40.5 23.5t49 8.5t49 -8.5t40.5 -23.5t28 -36t10.5 -46t-10.5 -46t-28 -36t-40.5 -23t-49 -8zM264 839q30 0 48 17t18 41q0 25 -18 42t-48 17t-48 -17t-18 -42q0 -24 18 -41t48 -17z" />
    <glyph glyph-name="commaaccent.cap" 
d="M181 -253q83 8 78 74h-65v117h140v-99q0 -73 -37 -104.5t-108 -33.5z" />
    <glyph glyph-name="cedilla.cap" 
d="M129 -125l100 145h109l-81 -198z" />
    <glyph glyph-name="ogonek.cap" 
d="M372 -171q-12 -2 -23 -2h-21q-68 0 -103.5 25.5t-35.5 63.5q0 26 12.5 48.5t33.5 46.5l101 -1q-20 -21 -28.5 -38t-8.5 -32q0 -23 19 -33.5t54 -9.5v-68z" />
    </font>
</defs>
</svg>
